/* XPM */
static char *result[] = {
/* columns rows colors chars-per-pixel */
"64 64 3 1 ",
"  c black",
". c gray79",
"X c white",
/* pixels */
"                                                                ",
"                                                                ",
"                                                                ",
"                                                                ",
"    XXXXXXXXXXXXXXXXXXXXXXXXXXXXXXXXXXXXXXXXXXXXXXXXXXXXXXXX    ",
"    XXXXXXXXXXXXXXXXXXXXXXXXXXXXXXXXXXXXXXXXXXXXXXXXXXXXXXXX    ",
"    XXXXXXXXXXXXXXXXXXXXXXXXXXXXXXXXXXXXXXXXXXXXXXXXXXXXXXXX    ",
"    XXXXXXXXXXXXXXXXXXXXXXXXXXXXXXXXXXXXXXXXXXXXXXXXXXXXXXXX    ",
"    XXXXXXXXXXXXXXXXXXXXXXXXXXXXXXXXXXXXXXXXXXXXXXXXXXXXXXXX    ",
"    XXXXXXXXXXXXXXXXXXXXXXXXXXXXXXXXXXXXXXXXXXXXXXXXXXXXXXXX    ",
"    XXXXXXXXXXXXXXXXXXXXXXXXXXXXXXXXXXXXXXXXXXXXXXXXXXXXXXXX    ",
"    XXXXXXXXXXXXXXXXXXXXXXXXXXXXXXXXXXXXXXXXXXXXXXXXXXXXXXXX    ",
"    XXXXXXXXXXXXXXXX                        XXXXXXXXXXXXXXXX    ",
"    XXXXXXXXXXXXXXXX                        XXXXXXXXXXXXXXXX    ",
"    XXXXXXXXXXXXXXXX                        XXXXXXXXXXXXXXXX    ",
"    XXXXXXXXXXXXXXXX                        XXXXXXXXXXXXXXXX    ",
"    XXXXXXXXXXXX        XXXXXXXXXXXXXXXX        XXXXXXXXXXXX    ",
"    XXXXXXXXXXXX        XXXXXXXXXXXXXXXX        XXXXXXXXXXXX    ",
"    XXXXXXXXXXXX        XXXXXXXXXXXXXXXX        XXXXXXXXXXXX    ",
"    XXXXXXXXXXXX        XXXXXXXXXXXXXXXX        XXXXXXXXXXXX    ",
"    XXXXXXXXXXXX    XXXXXXXXXXXXXXXXXXXXXXXX    ....XXXXXXXX    ",
"    XXXXXXXXXXXX    XXXXXXXXXXXXXXXXXXXXXXXX    ....XXXXXXXX    ",
"    XXXXXXXXXXXX    XXXXXXXXXXXXXXXXXXXXXXXX    ....XXXXXXXX    ",
"    XXXXXXXXXXXX    XXXXXXXXXXXXXXXXXXXXXXXX    ....XXXXXXXX    ",
"    XXXXXXXXXXXX    XXXXXXXX        XXXXXXXX    ....XXXXXXXX    ",
"    XXXXXXXXXXXX    XXXXXXXX        XXXXXXXX    ....XXXXXXXX    ",
"    XXXXXXXXXXXX    XXXXXXXX        XXXXXXXX    ....XXXXXXXX    ",
"    XXXXXXXXXXXX    XXXXXXXX        XXXXXXXX    ....XXXXXXXX    ",
"    XXXXXXXXXXXX    XXXXXXXX        XXXXXXXX    ....XXXXXXXX    ",
"    XXXXXXXXXXXX    XXXXXXXX        XXXXXXXX    ....XXXXXXXX    ",
"    XXXXXXXXXXXX    XXXXXXXX        XXXXXXXX    ....XXXXXXXX    ",
"    XXXXXXXXXXXX    XXXXXXXX        XXXXXXXX    ....XXXXXXXX    ",
"    XXXXXXXXXXXX    XXXXXXXX        XXXXXXXX    ....XXXXXXXX    ",
"    XXXXXXXXXXXX    XXXXXXXX        XXXXXXXX    ....XXXXXXXX    ",
"    XXXXXXXXXXXX    XXXXXXXX        XXXXXXXX    ....XXXXXXXX    ",
"    XXXXXXXXXXXX    XXXXXXXX        XXXXXXXX    ....XXXXXXXX    ",
"    XXXXXXXXXXXX    XXXXXXXX        XXXXXXXX    ....XXXXXXXX    ",
"    XXXXXXXXXXXX    XXXXXXXX        XXXXXXXX    ....XXXXXXXX    ",
"    XXXXXXXXXXXX    XXXXXXXX        XXXXXXXX    ....XXXXXXXX    ",
"    XXXXXXXXXXXX    XXXXXXXX        XXXXXXXX    ....XXXXXXXX    ",
"    XXXXXXXXXXXX    XXXXXXXXXXXXXXXXXXXXXXXX    ....XXXXXXXX    ",
"    XXXXXXXXXXXX    XXXXXXXXXXXXXXXXXXXXXXXX    ....XXXXXXXX    ",
"    XXXXXXXXXXXX    XXXXXXXXXXXXXXXXXXXXXXXX    ....XXXXXXXX    ",
"    XXXXXXXXXXXX    XXXXXXXXXXXXXXXXXXXXXXXX    ....XXXXXXXX    ",
"    XXXXXXXXXXXX        XXXXXXXXXXXXXXXX        ....XXXXXXXX    ",
"    XXXXXXXXXXXX        XXXXXXXXXXXXXXXX        ....XXXXXXXX    ",
"    XXXXXXXXXXXX        XXXXXXXXXXXXXXXX        ....XXXXXXXX    ",
"    XXXXXXXXXXXX        XXXXXXXXXXXXXXXX        ....XXXXXXXX    ",
"    XXXXXXXXXXXXXXXX                        ........XXXXXXXX    ",
"    XXXXXXXXXXXXXXXX                        ........XXXXXXXX    ",
"    XXXXXXXXXXXXXXXX                        ........XXXXXXXX    ",
"    XXXXXXXXXXXXXXXX                        ........XXXXXXXX    ",
"    XXXXXXXXXXXXXXXXXXXX........................XXXXXXXXXXXX    ",
"    XXXXXXXXXXXXXXXXXXXX........................XXXXXXXXXXXX    ",
"    XXXXXXXXXXXXXXXXXXXX........................XXXXXXXXXXXX    ",
"    XXXXXXXXXXXXXXXXXXXX........................XXXXXXXXXXXX    ",
"    XXXXXXXXXXXXXXXXXXXXXXXXXXXXXXXXXXXXXXXXXXXXXXXXXXXXXXXX    ",
"    XXXXXXXXXXXXXXXXXXXXXXXXXXXXXXXXXXXXXXXXXXXXXXXXXXXXXXXX    ",
"    XXXXXXXXXXXXXXXXXXXXXXXXXXXXXXXXXXXXXXXXXXXXXXXXXXXXXXXX    ",
"    XXXXXXXXXXXXXXXXXXXXXXXXXXXXXXXXXXXXXXXXXXXXXXXXXXXXXXXX    ",
"                                                                ",
"                                                                ",
"                                                                ",
"                                                                "
};
