/* XPM */
static char *result[] = {
/* columns rows colors chars-per-pixel */
"64 64 3 1 ",
"  c black",
". c gray79",
"X c white",
/* pixels */
"                                                                ",
"                                                                ",
"                                                                ",
"                                                                ",
"    XXXXXXXXXXXXXXXXXXXXXXXXXXXXXXXXXXXXXXXXXXXXXXXXXXXXXXXX    ",
"    XXXXXXXXXXXXXXXXXXXXXXXXXXXXXXXXXXXXXXXXXXXXXXXXXXXXXXXX    ",
"    XXXXXXXXXXXXXXXXXXXXXXXXXXXXXXXXXXXXXXXXXXXXXXXXXXXXXXXX    ",
"    XXXXXXXXXXXXXXXXXXXXXXXXXXXXXXXXXXXXXXXXXXXXXXXXXXXXXXXX    ",
"    XXXXXXXXXXXXXXXXXXXXXXXXXXXXXXXXXXXXXXXXXXXXXXXXXXXXXXXX    ",
"    XXXXXXXXXXXXXXXXXXXXXXXXXXXXXXXXXXXXXXXXXXXXXXXXXXXXXXXX    ",
"    XXXXXXXXXXXXXXXXXXXXXXXXXXXXXXXXXXXXXXXXXXXXXXXXXXXXXXXX    ",
"    XXXXXXXXXXXXXXXXXXXXXXXXXXXXXXXXXXXXXXXXXXXXXXXXXXXXXXXX    ",
"    XXXXXXXXXXXXXXXXXXXX                    XXXXXXXXXXXXXXXX    ",
"    XXXXXXXXXXXXXXXXXXXX                    XXXXXXXXXXXXXXXX    ",
"    XXXXXXXXXXXXXXXXXXXX                    XXXXXXXXXXXXXXXX    ",
"    XXXXXXXXXXXXXXXXXXXX                    XXXXXXXXXXXXXXXX    ",
"    XXXXXXXXXXXXXXXX        XXXXXXXXXXXX    ....XXXXXXXXXXXX    ",
"    XXXXXXXXXXXXXXXX        XXXXXXXXXXXX    ....XXXXXXXXXXXX    ",
"    XXXXXXXXXXXXXXXX        XXXXXXXXXXXX    ....XXXXXXXXXXXX    ",
"    XXXXXXXXXXXXXXXX        XXXXXXXXXXXX    ....XXXXXXXXXXXX    ",
"    XXXXXXXXXXXXXXXX    XXXXXXXXXXXXXXXX    ....XXXXXXXXXXXX    ",
"    XXXXXXXXXXXXXXXX    XXXXXXXXXXXXXXXX    ....XXXXXXXXXXXX    ",
"    XXXXXXXXXXXXXXXX    XXXXXXXXXXXXXXXX    ....XXXXXXXXXXXX    ",
"    XXXXXXXXXXXXXXXX    XXXXXXXXXXXXXXXX    ....XXXXXXXXXXXX    ",
"    XXXXXXXXXXXXXXXX    XXXXXXXXXXXXXXXX    ....XXXXXXXXXXXX    ",
"    XXXXXXXXXXXXXXXX    XXXXXXXXXXXXXXXX    ....XXXXXXXXXXXX    ",
"    XXXXXXXXXXXXXXXX    XXXXXXXXXXXXXXXX    ....XXXXXXXXXXXX    ",
"    XXXXXXXXXXXXXXXX    XXXXXXXXXXXXXXXX    ....XXXXXXXXXXXX    ",
"    XXXXXXXXXXXXXXXX        XXXXXXXXXXXX    ....XXXXXXXXXXXX    ",
"    XXXXXXXXXXXXXXXX        XXXXXXXXXXXX    ....XXXXXXXXXXXX    ",
"    XXXXXXXXXXXXXXXX        XXXXXXXXXXXX    ....XXXXXXXXXXXX    ",
"    XXXXXXXXXXXXXXXX        XXXXXXXXXXXX    ....XXXXXXXXXXXX    ",
"    XXXXXXXXXXXXXXXXXXXX    XXXXXXXXXXXX    ....XXXXXXXXXXXX    ",
"    XXXXXXXXXXXXXXXXXXXX    XXXXXXXXXXXX    ....XXXXXXXXXXXX    ",
"    XXXXXXXXXXXXXXXXXXXX    XXXXXXXXXXXX    ....XXXXXXXXXXXX    ",
"    XXXXXXXXXXXXXXXXXXXX    XXXXXXXXXXXX    ....XXXXXXXXXXXX    ",
"    XXXXXXXXXXXX            XXXXXXXXXXXX        ....XXXXXXXX    ",
"    XXXXXXXXXXXX            XXXXXXXXXXXX        ....XXXXXXXX    ",
"    XXXXXXXXXXXX            XXXXXXXXXXXX        ....XXXXXXXX    ",
"    XXXXXXXXXXXX            XXXXXXXXXXXX        ....XXXXXXXX    ",
"    XXXXXXXXXXXX    XXXXXXXXXXXXXXXXXXXXXXXX    ....XXXXXXXX    ",
"    XXXXXXXXXXXX    XXXXXXXXXXXXXXXXXXXXXXXX    ....XXXXXXXX    ",
"    XXXXXXXXXXXX    XXXXXXXXXXXXXXXXXXXXXXXX    ....XXXXXXXX    ",
"    XXXXXXXXXXXX    XXXXXXXXXXXXXXXXXXXXXXXX    ....XXXXXXXX    ",
"    XXXXXXXXXXXX    XXXXXXXXXXXXXXXXXXXXXXXX    ....XXXXXXXX    ",
"    XXXXXXXXXXXX    XXXXXXXXXXXXXXXXXXXXXXXX    ....XXXXXXXX    ",
"    XXXXXXXXXXXX    XXXXXXXXXXXXXXXXXXXXXXXX    ....XXXXXXXX    ",
"    XXXXXXXXXXXX    XXXXXXXXXXXXXXXXXXXXXXXX    ....XXXXXXXX    ",
"    XXXXXXXXXXXX                                ....XXXXXXXX    ",
"    XXXXXXXXXXXX                                ....XXXXXXXX    ",
"    XXXXXXXXXXXX                                ....XXXXXXXX    ",
"    XXXXXXXXXXXX                                ....XXXXXXXX    ",
"    XXXXXXXXXXXXXXXX................................XXXXXXXX    ",
"    XXXXXXXXXXXXXXXX................................XXXXXXXX    ",
"    XXXXXXXXXXXXXXXX................................XXXXXXXX    ",
"    XXXXXXXXXXXXXXXX................................XXXXXXXX    ",
"    XXXXXXXXXXXXXXXXXXXXXXXXXXXXXXXXXXXXXXXXXXXXXXXXXXXXXXXX    ",
"    XXXXXXXXXXXXXXXXXXXXXXXXXXXXXXXXXXXXXXXXXXXXXXXXXXXXXXXX    ",
"    XXXXXXXXXXXXXXXXXXXXXXXXXXXXXXXXXXXXXXXXXXXXXXXXXXXXXXXX    ",
"    XXXXXXXXXXXXXXXXXXXXXXXXXXXXXXXXXXXXXXXXXXXXXXXXXXXXXXXX    ",
"                                                                ",
"                                                                ",
"                                                                ",
"                                                                "
};
