/* XPM */
static char *result[] = {
/* columns rows colors chars-per-pixel */
"64 64 3 1 ",
"  c black",
". c gray79",
"X c white",
/* pixels */
"                                                                ",
"                                                                ",
"                                                                ",
"                                                                ",
"    XXXXXXXXXXXXXXXXXXXXXXXXXXXXXXXXXXXXXXXXXXXXXXXXXXXXXXXX    ",
"    XXXXXXXXXXXXXXXXXXXXXXXXXXXXXXXXXXXXXXXXXXXXXXXXXXXXXXXX    ",
"    XXXXXXXXXXXXXXXXXXXXXXXXXXXXXXXXXXXXXXXXXXXXXXXXXXXXXXXX    ",
"    XXXXXXXXXXXXXXXXXXXXXXXXXXXXXXXXXXXXXXXXXXXXXXXXXXXXXXXX    ",
"    XXXXXXXXXXXXXXXXXXXXXXXXXXXXXXXXXXXXXXXXXXXXXXXXXXXXXXXX    ",
"    XXXXXXXXXXXXXXXXXXXXXXXXXXXXXXXXXXXXXXXXXXXXXXXXXXXXXXXX    ",
"    XXXXXXXXXXXXXXXXXXXXXXXXXXXXXXXXXXXXXXXXXXXXXXXXXXXXXXXX    ",
"    XXXXXXXXXXXXXXXXXXXXXXXXXXXXXXXXXXXXXXXXXXXXXXXXXXXXXXXX    ",
"    XXXXXXXXXXXX                            XXXXXXXXXXXXXXXX    ",
"    XXXXXXXXXXXX                            XXXXXXXXXXXXXXXX    ",
"    XXXXXXXXXXXX                            XXXXXXXXXXXXXXXX    ",
"    XXXXXXXXXXXX                            XXXXXXXXXXXXXXXX    ",
"    XXXXXXXXXXXX    XXXXXXXXXXXXXXXXXXXX        XXXXXXXXXXXX    ",
"    XXXXXXXXXXXX    XXXXXXXXXXXXXXXXXXXX        XXXXXXXXXXXX    ",
"    XXXXXXXXXXXX    XXXXXXXXXXXXXXXXXXXX        XXXXXXXXXXXX    ",
"    XXXXXXXXXXXX    XXXXXXXXXXXXXXXXXXXX        XXXXXXXXXXXX    ",
"    XXXXXXXXXXXX    XXXXXXXXXXXXXXXXXXXXXXXX    ....XXXXXXXX    ",
"    XXXXXXXXXXXX    XXXXXXXXXXXXXXXXXXXXXXXX    ....XXXXXXXX    ",
"    XXXXXXXXXXXX    XXXXXXXXXXXXXXXXXXXXXXXX    ....XXXXXXXX    ",
"    XXXXXXXXXXXX    XXXXXXXXXXXXXXXXXXXXXXXX    ....XXXXXXXX    ",
"    XXXXXXXXXXXX                    XXXXXXXX    ....XXXXXXXX    ",
"    XXXXXXXXXXXX                    XXXXXXXX    ....XXXXXXXX    ",
"    XXXXXXXXXXXX                    XXXXXXXX    ....XXXXXXXX    ",
"    XXXXXXXXXXXX                    XXXXXXXX    ....XXXXXXXX    ",
"    XXXXXXXXXXXXXXXX        XXXXXXXXXXXXXXXX    ....XXXXXXXX    ",
"    XXXXXXXXXXXXXXXX        XXXXXXXXXXXXXXXX    ....XXXXXXXX    ",
"    XXXXXXXXXXXXXXXX        XXXXXXXXXXXXXXXX    ....XXXXXXXX    ",
"    XXXXXXXXXXXXXXXX        XXXXXXXXXXXXXXXX    ....XXXXXXXX    ",
"    XXXXXXXXXXXXXXXXXXXX    XXXXXXXXXXXX        ....XXXXXXXX    ",
"    XXXXXXXXXXXXXXXXXXXX    XXXXXXXXXXXX        ....XXXXXXXX    ",
"    XXXXXXXXXXXXXXXXXXXX    XXXXXXXXXXXX        ....XXXXXXXX    ",
"    XXXXXXXXXXXXXXXXXXXX    XXXXXXXXXXXX        ....XXXXXXXX    ",
"    XXXXXXXXXXXX                    XXXXXXXX    ....XXXXXXXX    ",
"    XXXXXXXXXXXX                    XXXXXXXX    ....XXXXXXXX    ",
"    XXXXXXXXXXXX                    XXXXXXXX    ....XXXXXXXX    ",
"    XXXXXXXXXXXX                    XXXXXXXX    ....XXXXXXXX    ",
"    XXXXXXXXXXXX    XXXXXXXXXXXXXXXXXXXXXXXX    ....XXXXXXXX    ",
"    XXXXXXXXXXXX    XXXXXXXXXXXXXXXXXXXXXXXX    ....XXXXXXXX    ",
"    XXXXXXXXXXXX    XXXXXXXXXXXXXXXXXXXXXXXX    ....XXXXXXXX    ",
"    XXXXXXXXXXXX    XXXXXXXXXXXXXXXXXXXXXXXX    ....XXXXXXXX    ",
"    XXXXXXXXXXXX    XXXXXXXXXXXXXXXXXXXX        ....XXXXXXXX    ",
"    XXXXXXXXXXXX    XXXXXXXXXXXXXXXXXXXX        ....XXXXXXXX    ",
"    XXXXXXXXXXXX    XXXXXXXXXXXXXXXXXXXX        ....XXXXXXXX    ",
"    XXXXXXXXXXXX    XXXXXXXXXXXXXXXXXXXX        ....XXXXXXXX    ",
"    XXXXXXXXXXXX                                ....XXXXXXXX    ",
"    XXXXXXXXXXXX                                ....XXXXXXXX    ",
"    XXXXXXXXXXXX                                ....XXXXXXXX    ",
"    XXXXXXXXXXXX                                ....XXXXXXXX    ",
"    XXXXXXXXXXXXXXXX............................XXXXXXXXXXXX    ",
"    XXXXXXXXXXXXXXXX............................XXXXXXXXXXXX    ",
"    XXXXXXXXXXXXXXXX............................XXXXXXXXXXXX    ",
"    XXXXXXXXXXXXXXXX............................XXXXXXXXXXXX    ",
"    XXXXXXXXXXXXXXXXXXXXXXXXXXXXXXXXXXXXXXXXXXXXXXXXXXXXXXXX    ",
"    XXXXXXXXXXXXXXXXXXXXXXXXXXXXXXXXXXXXXXXXXXXXXXXXXXXXXXXX    ",
"    XXXXXXXXXXXXXXXXXXXXXXXXXXXXXXXXXXXXXXXXXXXXXXXXXXXXXXXX    ",
"    XXXXXXXXXXXXXXXXXXXXXXXXXXXXXXXXXXXXXXXXXXXXXXXXXXXXXXXX    ",
"                                                                ",
"                                                                ",
"                                                                ",
"                                                                "
};
