/* XPM */
static char *result[] = {
/* columns rows colors chars-per-pixel */
"64 64 3 1 ",
"  c black",
". c gray79",
"X c white",
/* pixels */
"                                                                ",
"                                                                ",
"                                                                ",
"                                                                ",
"    XXXXXXXXXXXXXXXXXXXXXXXXXXXXXXXXXXXXXXXXXXXXXXXXXXXXXXXX    ",
"    XXXXXXXXXXXXXXXXXXXXXXXXXXXXXXXXXXXXXXXXXXXXXXXXXXXXXXXX    ",
"    XXXXXXXXXXXXXXXXXXXXXXXXXXXXXXXXXXXXXXXXXXXXXXXXXXXXXXXX    ",
"    XXXXXXXXXXXXXXXXXXXXXXXXXXXXXXXXXXXXXXXXXXXXXXXXXXXXXXXX    ",
"    XXXXXXXXXXXXXXXXXXXXXXXXXXXXXXXXXXXXXXXXXXXXXXXXXXXXXXXX    ",
"    XXXXXXXXXXXXXXXXXXXXXXXXXXXXXXXXXXXXXXXXXXXXXXXXXXXXXXXX    ",
"    XXXXXXXXXXXXXXXXXXXXXXXXXXXXXXXXXXXXXXXXXXXXXXXXXXXXXXXX    ",
"    XXXXXXXXXXXXXXXXXXXXXXXXXXXXXXXXXXXXXXXXXXXXXXXXXXXXXXXX    ",
"    XXXXXXXXXXXX                            XXXXXXXXXXXXXXXX    ",
"    XXXXXXXXXXXX                            XXXXXXXXXXXXXXXX    ",
"    XXXXXXXXXXXX                            XXXXXXXXXXXXXXXX    ",
"    XXXXXXXXXXXX                            XXXXXXXXXXXXXXXX    ",
"    XXXXXXXXXXXX    XXXXXXXX    XXXXXXXX    XXXXXXXXXXXXXXXX    ",
"    XXXXXXXXXXXX    XXXXXXXX    XXXXXXXX    XXXXXXXXXXXXXXXX    ",
"    XXXXXXXXXXXX    XXXXXXXX    XXXXXXXX    XXXXXXXXXXXXXXXX    ",
"    XXXXXXXXXXXX    XXXXXXXX    XXXXXXXX    XXXXXXXXXXXXXXXX    ",
"    XXXXXXXXXXXX    XXXXXXXX    XXXXXXXX    XXXXXXXXXXXXXXXX    ",
"    XXXXXXXXXXXX    XXXXXXXX    XXXXXXXX    XXXXXXXXXXXXXXXX    ",
"    XXXXXXXXXXXX    XXXXXXXX    XXXXXXXX    XXXXXXXXXXXXXXXX    ",
"    XXXXXXXXXXXX    XXXXXXXX    XXXXXXXX    XXXXXXXXXXXXXXXX    ",
"    XXXXXXXXXXXX    XXXXXXXX    XXXXXXXX        XXXXXXXXXXXX    ",
"    XXXXXXXXXXXX    XXXXXXXX    XXXXXXXX        XXXXXXXXXXXX    ",
"    XXXXXXXXXXXX    XXXXXXXX    XXXXXXXX        XXXXXXXXXXXX    ",
"    XXXXXXXXXXXX    XXXXXXXX    XXXXXXXX        XXXXXXXXXXXX    ",
"    XXXXXXXXXXXX    XXXXXXXXXXXXXXXXXXXXXXXX    ....XXXXXXXX    ",
"    XXXXXXXXXXXX    XXXXXXXXXXXXXXXXXXXXXXXX    ....XXXXXXXX    ",
"    XXXXXXXXXXXX    XXXXXXXXXXXXXXXXXXXXXXXX    ....XXXXXXXX    ",
"    XXXXXXXXXXXX    XXXXXXXXXXXXXXXXXXXXXXXX    ....XXXXXXXX    ",
"    XXXXXXXXXXXX    XXXXXXXXXXXXXXXXXXXXXXXX    ....XXXXXXXX    ",
"    XXXXXXXXXXXX    XXXXXXXXXXXXXXXXXXXXXXXX    ....XXXXXXXX    ",
"    XXXXXXXXXXXX    XXXXXXXXXXXXXXXXXXXXXXXX    ....XXXXXXXX    ",
"    XXXXXXXXXXXX    XXXXXXXXXXXXXXXXXXXXXXXX    ....XXXXXXXX    ",
"    XXXXXXXXXXXX                XXXXXXXX        ....XXXXXXXX    ",
"    XXXXXXXXXXXX                XXXXXXXX        ....XXXXXXXX    ",
"    XXXXXXXXXXXX                XXXXXXXX        ....XXXXXXXX    ",
"    XXXXXXXXXXXX                XXXXXXXX        ....XXXXXXXX    ",
"    XXXXXXXXXXXXXXXX........    XXXXXXXX    ........XXXXXXXX    ",
"    XXXXXXXXXXXXXXXX........    XXXXXXXX    ........XXXXXXXX    ",
"    XXXXXXXXXXXXXXXX........    XXXXXXXX    ........XXXXXXXX    ",
"    XXXXXXXXXXXXXXXX........    XXXXXXXX    ........XXXXXXXX    ",
"    XXXXXXXXXXXXXXXXXXXX....    XXXXXXXX    XXXXXXXXXXXXXXXX    ",
"    XXXXXXXXXXXXXXXXXXXX....    XXXXXXXX    XXXXXXXXXXXXXXXX    ",
"    XXXXXXXXXXXXXXXXXXXX....    XXXXXXXX    XXXXXXXXXXXXXXXX    ",
"    XXXXXXXXXXXXXXXXXXXX....    XXXXXXXX    XXXXXXXXXXXXXXXX    ",
"    XXXXXXXXXXXXXXXXXXXX....                XXXXXXXXXXXXXXXX    ",
"    XXXXXXXXXXXXXXXXXXXX....                XXXXXXXXXXXXXXXX    ",
"    XXXXXXXXXXXXXXXXXXXX....                XXXXXXXXXXXXXXXX    ",
"    XXXXXXXXXXXXXXXXXXXX....                XXXXXXXXXXXXXXXX    ",
"    XXXXXXXXXXXXXXXXXXXXXXXX................XXXXXXXXXXXXXXXX    ",
"    XXXXXXXXXXXXXXXXXXXXXXXX................XXXXXXXXXXXXXXXX    ",
"    XXXXXXXXXXXXXXXXXXXXXXXX................XXXXXXXXXXXXXXXX    ",
"    XXXXXXXXXXXXXXXXXXXXXXXX................XXXXXXXXXXXXXXXX    ",
"    XXXXXXXXXXXXXXXXXXXXXXXXXXXXXXXXXXXXXXXXXXXXXXXXXXXXXXXX    ",
"    XXXXXXXXXXXXXXXXXXXXXXXXXXXXXXXXXXXXXXXXXXXXXXXXXXXXXXXX    ",
"    XXXXXXXXXXXXXXXXXXXXXXXXXXXXXXXXXXXXXXXXXXXXXXXXXXXXXXXX    ",
"    XXXXXXXXXXXXXXXXXXXXXXXXXXXXXXXXXXXXXXXXXXXXXXXXXXXXXXXX    ",
"                                                                ",
"                                                                ",
"                                                                ",
"                                                                "
};
