/* XPM */
static char *result[] = {
/* columns rows colors chars-per-pixel */
"64 64 3 1 ",
"  c black",
". c gray79",
"X c white",
/* pixels */
"                                                                ",
"                                                                ",
"                                                                ",
"                                                                ",
"    XXXXXXXXXXXXXXXXXXXXXXXXXXXXXXXXXXXXXXXXXXXXXXXXXXXXXXXX    ",
"    XXXXXXXXXXXXXXXXXXXXXXXXXXXXXXXXXXXXXXXXXXXXXXXXXXXXXXXX    ",
"    XXXXXXXXXXXXXXXXXXXXXXXXXXXXXXXXXXXXXXXXXXXXXXXXXXXXXXXX    ",
"    XXXXXXXXXXXXXXXXXXXXXXXXXXXXXXXXXXXXXXXXXXXXXXXXXXXXXXXX    ",
"    XXXXXXXXXXXXXXXXXXXXXXXXXXXXXXXXXXXXXXXXXXXXXXXXXXXXXXXX    ",
"    XXXXXXXXXXXXXXXXXXXXXXXXXXXXXXXXXXXXXXXXXXXXXXXXXXXXXXXX    ",
"    XXXXXXXXXXXXXXXXXXXXXXXXXXXXXXXXXXXXXXXXXXXXXXXXXXXXXXXX    ",
"    XXXXXXXXXXXXXXXXXXXXXXXXXXXXXXXXXXXXXXXXXXXXXXXXXXXXXXXX    ",
"    XXXXXXXXXXXX                                XXXXXXXXXXXX    ",
"    XXXXXXXXXXXX                                XXXXXXXXXXXX    ",
"    XXXXXXXXXXXX                                XXXXXXXXXXXX    ",
"    XXXXXXXXXXXX                                XXXXXXXXXXXX    ",
"    XXXXXXXXXXXX    XXXXXXXXXXXXXXXXXXXXXXXX    ....XXXXXXXX    ",
"    XXXXXXXXXXXX    XXXXXXXXXXXXXXXXXXXXXXXX    ....XXXXXXXX    ",
"    XXXXXXXXXXXX    XXXXXXXXXXXXXXXXXXXXXXXX    ....XXXXXXXX    ",
"    XXXXXXXXXXXX    XXXXXXXXXXXXXXXXXXXXXXXX    ....XXXXXXXX    ",
"    XXXXXXXXXXXX    XXXXXXXXXXXXXXXXXXXXXXXX    ....XXXXXXXX    ",
"    XXXXXXXXXXXX    XXXXXXXXXXXXXXXXXXXXXXXX    ....XXXXXXXX    ",
"    XXXXXXXXXXXX    XXXXXXXXXXXXXXXXXXXXXXXX    ....XXXXXXXX    ",
"    XXXXXXXXXXXX    XXXXXXXXXXXXXXXXXXXXXXXX    ....XXXXXXXX    ",
"    XXXXXXXXXXXX    XXXXXXXX                    ....XXXXXXXX    ",
"    XXXXXXXXXXXX    XXXXXXXX                    ....XXXXXXXX    ",
"    XXXXXXXXXXXX    XXXXXXXX                    ....XXXXXXXX    ",
"    XXXXXXXXXXXX    XXXXXXXX                    ....XXXXXXXX    ",
"    XXXXXXXXXXXX    XXXXXXXXXXXXXXXXXXXX        ....XXXXXXXX    ",
"    XXXXXXXXXXXX    XXXXXXXXXXXXXXXXXXXX        ....XXXXXXXX    ",
"    XXXXXXXXXXXX    XXXXXXXXXXXXXXXXXXXX        ....XXXXXXXX    ",
"    XXXXXXXXXXXX    XXXXXXXXXXXXXXXXXXXX        ....XXXXXXXX    ",
"    XXXXXXXXXXXX    XXXXXXXXXXXXXXXXXXXXXXXX    ....XXXXXXXX    ",
"    XXXXXXXXXXXX    XXXXXXXXXXXXXXXXXXXXXXXX    ....XXXXXXXX    ",
"    XXXXXXXXXXXX    XXXXXXXXXXXXXXXXXXXXXXXX    ....XXXXXXXX    ",
"    XXXXXXXXXXXX    XXXXXXXXXXXXXXXXXXXXXXXX    ....XXXXXXXX    ",
"    XXXXXXXXXXXX                XXXXXXXXXXXX    ....XXXXXXXX    ",
"    XXXXXXXXXXXX                XXXXXXXXXXXX    ....XXXXXXXX    ",
"    XXXXXXXXXXXX                XXXXXXXXXXXX    ....XXXXXXXX    ",
"    XXXXXXXXXXXX                XXXXXXXXXXXX    ....XXXXXXXX    ",
"    XXXXXXXXXXXX    XXXXXXXXXXXXXXXXXXXXXXXX    ....XXXXXXXX    ",
"    XXXXXXXXXXXX    XXXXXXXXXXXXXXXXXXXXXXXX    ....XXXXXXXX    ",
"    XXXXXXXXXXXX    XXXXXXXXXXXXXXXXXXXXXXXX    ....XXXXXXXX    ",
"    XXXXXXXXXXXX    XXXXXXXXXXXXXXXXXXXXXXXX    ....XXXXXXXX    ",
"    XXXXXXXXXXXX    XXXXXXXXXXXXXXXXXXXX        ....XXXXXXXX    ",
"    XXXXXXXXXXXX    XXXXXXXXXXXXXXXXXXXX        ....XXXXXXXX    ",
"    XXXXXXXXXXXX    XXXXXXXXXXXXXXXXXXXX        ....XXXXXXXX    ",
"    XXXXXXXXXXXX    XXXXXXXXXXXXXXXXXXXX        ....XXXXXXXX    ",
"    XXXXXXXXXXXX                            ........XXXXXXXX    ",
"    XXXXXXXXXXXX                            ........XXXXXXXX    ",
"    XXXXXXXXXXXX                            ........XXXXXXXX    ",
"    XXXXXXXXXXXX                            ........XXXXXXXX    ",
"    XXXXXXXXXXXXXXXX............................XXXXXXXXXXXX    ",
"    XXXXXXXXXXXXXXXX............................XXXXXXXXXXXX    ",
"    XXXXXXXXXXXXXXXX............................XXXXXXXXXXXX    ",
"    XXXXXXXXXXXXXXXX............................XXXXXXXXXXXX    ",
"    XXXXXXXXXXXXXXXXXXXXXXXXXXXXXXXXXXXXXXXXXXXXXXXXXXXXXXXX    ",
"    XXXXXXXXXXXXXXXXXXXXXXXXXXXXXXXXXXXXXXXXXXXXXXXXXXXXXXXX    ",
"    XXXXXXXXXXXXXXXXXXXXXXXXXXXXXXXXXXXXXXXXXXXXXXXXXXXXXXXX    ",
"    XXXXXXXXXXXXXXXXXXXXXXXXXXXXXXXXXXXXXXXXXXXXXXXXXXXXXXXX    ",
"                                                                ",
"                                                                ",
"                                                                ",
"                                                                "
};
