/* XPM */
static char *result[] = {
/* columns rows colors chars-per-pixel */
"64 64 3 1 ",
"  c black",
". c gray79",
"X c white",
/* pixels */
"                                                                ",
"                                                                ",
"                                                                ",
"                                                                ",
"    XXXXXXXXXXXXXXXXXXXXXXXXXXXXXXXXXXXXXXXXXXXXXXXXXXXXXXXX    ",
"    XXXXXXXXXXXXXXXXXXXXXXXXXXXXXXXXXXXXXXXXXXXXXXXXXXXXXXXX    ",
"    XXXXXXXXXXXXXXXXXXXXXXXXXXXXXXXXXXXXXXXXXXXXXXXXXXXXXXXX    ",
"    XXXXXXXXXXXXXXXXXXXXXXXXXXXXXXXXXXXXXXXXXXXXXXXXXXXXXXXX    ",
"    XXXXXXXXXXXXXXXXXXXXXXXXXXXXXXXXXXXXXXXXXXXXXXXXXXXXXXXX    ",
"    XXXXXXXXXXXXXXXXXXXXXXXXXXXXXXXXXXXXXXXXXXXXXXXXXXXXXXXX    ",
"    XXXXXXXXXXXXXXXXXXXXXXXXXXXXXXXXXXXXXXXXXXXXXXXXXXXXXXXX    ",
"    XXXXXXXXXXXXXXXXXXXXXXXXXXXXXXXXXXXXXXXXXXXXXXXXXXXXXXXX    ",
"    XXXXXXXXXXXX                XXXXXXXXXXXXXXXXXXXXXXXXXXXX    ",
"    XXXXXXXXXXXX                XXXXXXXXXXXXXXXXXXXXXXXXXXXX    ",
"    XXXXXXXXXXXX                XXXXXXXXXXXXXXXXXXXXXXXXXXXX    ",
"    XXXXXXXXXXXX                XXXXXXXXXXXXXXXXXXXXXXXXXXXX    ",
"    XXXXXXXXXXXX    XXXXXXXX    ....XXXXXXXXXXXXXXXXXXXXXXXX    ",
"    XXXXXXXXXXXX    XXXXXXXX    ....XXXXXXXXXXXXXXXXXXXXXXXX    ",
"    XXXXXXXXXXXX    XXXXXXXX    ....XXXXXXXXXXXXXXXXXXXXXXXX    ",
"    XXXXXXXXXXXX    XXXXXXXX    ....XXXXXXXXXXXXXXXXXXXXXXXX    ",
"    XXXXXXXXXXXX    XXXXXXXX    ....XXXXXXXXXXXXXXXXXXXXXXXX    ",
"    XXXXXXXXXXXX    XXXXXXXX    ....XXXXXXXXXXXXXXXXXXXXXXXX    ",
"    XXXXXXXXXXXX    XXXXXXXX    ....XXXXXXXXXXXXXXXXXXXXXXXX    ",
"    XXXXXXXXXXXX    XXXXXXXX    ....XXXXXXXXXXXXXXXXXXXXXXXX    ",
"    XXXXXXXXXXXX    XXXXXXXX                XXXXXXXXXXXXXXXX    ",
"    XXXXXXXXXXXX    XXXXXXXX                XXXXXXXXXXXXXXXX    ",
"    XXXXXXXXXXXX    XXXXXXXX                XXXXXXXXXXXXXXXX    ",
"    XXXXXXXXXXXX    XXXXXXXX                XXXXXXXXXXXXXXXX    ",
"    XXXXXXXXXXXX    XXXXXXXXXXXXXXXXXXXX        XXXXXXXXXXXX    ",
"    XXXXXXXXXXXX    XXXXXXXXXXXXXXXXXXXX        XXXXXXXXXXXX    ",
"    XXXXXXXXXXXX    XXXXXXXXXXXXXXXXXXXX        XXXXXXXXXXXX    ",
"    XXXXXXXXXXXX    XXXXXXXXXXXXXXXXXXXX        XXXXXXXXXXXX    ",
"    XXXXXXXXXXXX    XXXXXXXXXXXXXXXXXXXXXXXX    ....XXXXXXXX    ",
"    XXXXXXXXXXXX    XXXXXXXXXXXXXXXXXXXXXXXX    ....XXXXXXXX    ",
"    XXXXXXXXXXXX    XXXXXXXXXXXXXXXXXXXXXXXX    ....XXXXXXXX    ",
"    XXXXXXXXXXXX    XXXXXXXXXXXXXXXXXXXXXXXX    ....XXXXXXXX    ",
"    XXXXXXXXXXXX    XXXXXXXX        XXXXXXXX    ....XXXXXXXX    ",
"    XXXXXXXXXXXX    XXXXXXXX        XXXXXXXX    ....XXXXXXXX    ",
"    XXXXXXXXXXXX    XXXXXXXX        XXXXXXXX    ....XXXXXXXX    ",
"    XXXXXXXXXXXX    XXXXXXXX        XXXXXXXX    ....XXXXXXXX    ",
"    XXXXXXXXXXXX    XXXXXXXXXXXXXXXXXXXXXXXX    ....XXXXXXXX    ",
"    XXXXXXXXXXXX    XXXXXXXXXXXXXXXXXXXXXXXX    ....XXXXXXXX    ",
"    XXXXXXXXXXXX    XXXXXXXXXXXXXXXXXXXXXXXX    ....XXXXXXXX    ",
"    XXXXXXXXXXXX    XXXXXXXXXXXXXXXXXXXXXXXX    ....XXXXXXXX    ",
"    XXXXXXXXXXXX        XXXXXXXXXXXXXXXX        ....XXXXXXXX    ",
"    XXXXXXXXXXXX        XXXXXXXXXXXXXXXX        ....XXXXXXXX    ",
"    XXXXXXXXXXXX        XXXXXXXXXXXXXXXX        ....XXXXXXXX    ",
"    XXXXXXXXXXXX        XXXXXXXXXXXXXXXX        ....XXXXXXXX    ",
"    XXXXXXXXXXXXXXXX                        ........XXXXXXXX    ",
"    XXXXXXXXXXXXXXXX                        ........XXXXXXXX    ",
"    XXXXXXXXXXXXXXXX                        ........XXXXXXXX    ",
"    XXXXXXXXXXXXXXXX                        ........XXXXXXXX    ",
"    XXXXXXXXXXXXXXXXXXXX........................XXXXXXXXXXXX    ",
"    XXXXXXXXXXXXXXXXXXXX........................XXXXXXXXXXXX    ",
"    XXXXXXXXXXXXXXXXXXXX........................XXXXXXXXXXXX    ",
"    XXXXXXXXXXXXXXXXXXXX........................XXXXXXXXXXXX    ",
"    XXXXXXXXXXXXXXXXXXXXXXXXXXXXXXXXXXXXXXXXXXXXXXXXXXXXXXXX    ",
"    XXXXXXXXXXXXXXXXXXXXXXXXXXXXXXXXXXXXXXXXXXXXXXXXXXXXXXXX    ",
"    XXXXXXXXXXXXXXXXXXXXXXXXXXXXXXXXXXXXXXXXXXXXXXXXXXXXXXXX    ",
"    XXXXXXXXXXXXXXXXXXXXXXXXXXXXXXXXXXXXXXXXXXXXXXXXXXXXXXXX    ",
"                                                                ",
"                                                                ",
"                                                                ",
"                                                                "
};
