/* XPM */
static char *result[] = {
/* columns rows colors chars-per-pixel */
"64 64 3 1 ",
"  c black",
". c gray79",
"X c white",
/* pixels */
"                                                                ",
"                                                                ",
"                                                                ",
"                                                                ",
"    XXXXXXXXXXXXXXXXXXXXXXXXXXXXXXXXXXXXXXXXXXXXXXXXXXXXXXXX    ",
"    XXXXXXXXXXXXXXXXXXXXXXXXXXXXXXXXXXXXXXXXXXXXXXXXXXXXXXXX    ",
"    XXXXXXXXXXXXXXXXXXXXXXXXXXXXXXXXXXXXXXXXXXXXXXXXXXXXXXXX    ",
"    XXXXXXXXXXXXXXXXXXXXXXXXXXXXXXXXXXXXXXXXXXXXXXXXXXXXXXXX    ",
"    XXXXXXXXXXXXXXXXXXXXXXXXXXXXXXXXXXXXXXXXXXXXXXXXXXXXXXXX    ",
"    XXXXXXXXXXXXXXXXXXXXXXXXXXXXXXXXXXXXXXXXXXXXXXXXXXXXXXXX    ",
"    XXXXXXXXXXXXXXXXXXXXXXXXXXXXXXXXXXXXXXXXXXXXXXXXXXXXXXXX    ",
"    XXXXXXXXXXXXXXXXXXXXXXXXXXXXXXXXXXXXXXXXXXXXXXXXXXXXXXXX    ",
"    XXXXXXXXXXXX                                XXXXXXXXXXXX    ",
"    XXXXXXXXXXXX                                XXXXXXXXXXXX    ",
"    XXXXXXXXXXXX                                XXXXXXXXXXXX    ",
"    XXXXXXXXXXXX                                XXXXXXXXXXXX    ",
"    XXXXXXXXXXXX    XXXXXXXXXXXXXXXXXXXXXXXX    ....XXXXXXXX    ",
"    XXXXXXXXXXXX    XXXXXXXXXXXXXXXXXXXXXXXX    ....XXXXXXXX    ",
"    XXXXXXXXXXXX    XXXXXXXXXXXXXXXXXXXXXXXX    ....XXXXXXXX    ",
"    XXXXXXXXXXXX    XXXXXXXXXXXXXXXXXXXXXXXX    ....XXXXXXXX    ",
"    XXXXXXXXXXXX    XXXXXXXXXXXXXXXXXXXXXXXX    ....XXXXXXXX    ",
"    XXXXXXXXXXXX    XXXXXXXXXXXXXXXXXXXXXXXX    ....XXXXXXXX    ",
"    XXXXXXXXXXXX    XXXXXXXXXXXXXXXXXXXXXXXX    ....XXXXXXXX    ",
"    XXXXXXXXXXXX    XXXXXXXXXXXXXXXXXXXXXXXX    ....XXXXXXXX    ",
"    XXXXXXXXXXXX                    XXXXXXXX    ....XXXXXXXX    ",
"    XXXXXXXXXXXX                    XXXXXXXX    ....XXXXXXXX    ",
"    XXXXXXXXXXXX                    XXXXXXXX    ....XXXXXXXX    ",
"    XXXXXXXXXXXX                    XXXXXXXX    ....XXXXXXXX    ",
"    XXXXXXXXXXXXXXXX....    XXXXXXXXXXXXXXXX    ....XXXXXXXX    ",
"    XXXXXXXXXXXXXXXX....    XXXXXXXXXXXXXXXX    ....XXXXXXXX    ",
"    XXXXXXXXXXXXXXXX....    XXXXXXXXXXXXXXXX    ....XXXXXXXX    ",
"    XXXXXXXXXXXXXXXX....    XXXXXXXXXXXXXXXX    ....XXXXXXXX    ",
"    XXXXXXXXXXXXXXXXXXXX    XXXXXXXXXXXXXXXX    ....XXXXXXXX    ",
"    XXXXXXXXXXXXXXXXXXXX    XXXXXXXXXXXXXXXX    ....XXXXXXXX    ",
"    XXXXXXXXXXXXXXXXXXXX    XXXXXXXXXXXXXXXX    ....XXXXXXXX    ",
"    XXXXXXXXXXXXXXXXXXXX    XXXXXXXXXXXXXXXX    ....XXXXXXXX    ",
"    XXXXXXXXXXXXXXXXXXXX            XXXXXXXX    ....XXXXXXXX    ",
"    XXXXXXXXXXXXXXXXXXXX            XXXXXXXX    ....XXXXXXXX    ",
"    XXXXXXXXXXXXXXXXXXXX            XXXXXXXX    ....XXXXXXXX    ",
"    XXXXXXXXXXXXXXXXXXXX            XXXXXXXX    ....XXXXXXXX    ",
"    XXXXXXXXXXXXXXXXXXXXXXXX....    XXXXXXXX    ....XXXXXXXX    ",
"    XXXXXXXXXXXXXXXXXXXXXXXX....    XXXXXXXX    ....XXXXXXXX    ",
"    XXXXXXXXXXXXXXXXXXXXXXXX....    XXXXXXXX    ....XXXXXXXX    ",
"    XXXXXXXXXXXXXXXXXXXXXXXX....    XXXXXXXX    ....XXXXXXXX    ",
"    XXXXXXXXXXXXXXXXXXXXXXXXXXXX    XXXXXXXX    ....XXXXXXXX    ",
"    XXXXXXXXXXXXXXXXXXXXXXXXXXXX    XXXXXXXX    ....XXXXXXXX    ",
"    XXXXXXXXXXXXXXXXXXXXXXXXXXXX    XXXXXXXX    ....XXXXXXXX    ",
"    XXXXXXXXXXXXXXXXXXXXXXXXXXXX    XXXXXXXX    ....XXXXXXXX    ",
"    XXXXXXXXXXXXXXXXXXXXXXXXXXXX                ....XXXXXXXX    ",
"    XXXXXXXXXXXXXXXXXXXXXXXXXXXX                ....XXXXXXXX    ",
"    XXXXXXXXXXXXXXXXXXXXXXXXXXXX                ....XXXXXXXX    ",
"    XXXXXXXXXXXXXXXXXXXXXXXXXXXX                ....XXXXXXXX    ",
"    XXXXXXXXXXXXXXXXXXXXXXXXXXXXXXXXXXXX............XXXXXXXX    ",
"    XXXXXXXXXXXXXXXXXXXXXXXXXXXXXXXXXXXX............XXXXXXXX    ",
"    XXXXXXXXXXXXXXXXXXXXXXXXXXXXXXXXXXXX............XXXXXXXX    ",
"    XXXXXXXXXXXXXXXXXXXXXXXXXXXXXXXXXXXX............XXXXXXXX    ",
"    XXXXXXXXXXXXXXXXXXXXXXXXXXXXXXXXXXXXXXXXXXXXXXXXXXXXXXXX    ",
"    XXXXXXXXXXXXXXXXXXXXXXXXXXXXXXXXXXXXXXXXXXXXXXXXXXXXXXXX    ",
"    XXXXXXXXXXXXXXXXXXXXXXXXXXXXXXXXXXXXXXXXXXXXXXXXXXXXXXXX    ",
"    XXXXXXXXXXXXXXXXXXXXXXXXXXXXXXXXXXXXXXXXXXXXXXXXXXXXXXXX    ",
"                                                                ",
"                                                                ",
"                                                                ",
"                                                                "
};
