/* XPM */
static char *result[] = {
/* columns rows colors chars-per-pixel */
"64 64 3 1 ",
"  c black",
". c gray79",
"X c white",
/* pixels */
"                                                                ",
"                                                                ",
"                                                                ",
"                                                                ",
"    XXXXXXXXXXXXXXXXXXXXXXXXXXXXXXXXXXXXXXXXXXXXXXXXXXXXXXXX    ",
"    XXXXXXXXXXXXXXXXXXXXXXXXXXXXXXXXXXXXXXXXXXXXXXXXXXXXXXXX    ",
"    XXXXXXXXXXXXXXXXXXXXXXXXXXXXXXXXXXXXXXXXXXXXXXXXXXXXXXXX    ",
"    XXXXXXXXXXXXXXXXXXXXXXXXXXXXXXXXXXXXXXXXXXXXXXXXXXXXXXXX    ",
"    XXXXXXXXXXXXXXXXXXXXXXXXXXXXXXXXXXXXXXXXXXXXXXXXXXXXXXXX    ",
"    XXXXXXXXXXXXXXXXXXXXXXXXXXXXXXXXXXXXXXXXXXXXXXXXXXXXXXXX    ",
"    XXXXXXXXXXXXXXXXXXXXXXXXXXXXXXXXXXXXXXXXXXXXXXXXXXXXXXXX    ",
"    XXXXXXXXXXXXXXXXXXXXXXXXXXXXXXXXXXXXXXXXXXXXXXXXXXXXXXXX    ",
"    XXXXXXXXXXXXXXXX                        XXXXXXXXXXXXXXXX    ",
"    XXXXXXXXXXXXXXXX                        XXXXXXXXXXXXXXXX    ",
"    XXXXXXXXXXXXXXXX                        XXXXXXXXXXXXXXXX    ",
"    XXXXXXXXXXXXXXXX                        XXXXXXXXXXXXXXXX    ",
"    XXXXXXXXXXXX        XXXXXXXXXXXXXXXX        XXXXXXXXXXXX    ",
"    XXXXXXXXXXXX        XXXXXXXXXXXXXXXX        XXXXXXXXXXXX    ",
"    XXXXXXXXXXXX        XXXXXXXXXXXXXXXX        XXXXXXXXXXXX    ",
"    XXXXXXXXXXXX        XXXXXXXXXXXXXXXX        XXXXXXXXXXXX    ",
"    XXXXXXXXXXXX    XXXXXXXXXXXXXXXXXXXXXXXX    ....XXXXXXXX    ",
"    XXXXXXXXXXXX    XXXXXXXXXXXXXXXXXXXXXXXX    ....XXXXXXXX    ",
"    XXXXXXXXXXXX    XXXXXXXXXXXXXXXXXXXXXXXX    ....XXXXXXXX    ",
"    XXXXXXXXXXXX    XXXXXXXXXXXXXXXXXXXXXXXX    ....XXXXXXXX    ",
"    XXXXXXXXXXXX    XXXXXXXX        XXXXXXXX    ....XXXXXXXX    ",
"    XXXXXXXXXXXX    XXXXXXXX        XXXXXXXX    ....XXXXXXXX    ",
"    XXXXXXXXXXXX    XXXXXXXX        XXXXXXXX    ....XXXXXXXX    ",
"    XXXXXXXXXXXX    XXXXXXXX        XXXXXXXX    ....XXXXXXXX    ",
"    XXXXXXXXXXXX    XXXXXXXXXXXXXXXXXXXXXXXX    ....XXXXXXXX    ",
"    XXXXXXXXXXXX    XXXXXXXXXXXXXXXXXXXXXXXX    ....XXXXXXXX    ",
"    XXXXXXXXXXXX    XXXXXXXXXXXXXXXXXXXXXXXX    ....XXXXXXXX    ",
"    XXXXXXXXXXXX    XXXXXXXXXXXXXXXXXXXXXXXX    ....XXXXXXXX    ",
"    XXXXXXXXXXXX        XXXXXXXXXXXXXXXXXXXX    ....XXXXXXXX    ",
"    XXXXXXXXXXXX        XXXXXXXXXXXXXXXXXXXX    ....XXXXXXXX    ",
"    XXXXXXXXXXXX        XXXXXXXXXXXXXXXXXXXX    ....XXXXXXXX    ",
"    XXXXXXXXXXXX        XXXXXXXXXXXXXXXXXXXX    ....XXXXXXXX    ",
"    XXXXXXXXXXXXXXXX                XXXXXXXX    ....XXXXXXXX    ",
"    XXXXXXXXXXXXXXXX                XXXXXXXX    ....XXXXXXXX    ",
"    XXXXXXXXXXXXXXXX                XXXXXXXX    ....XXXXXXXX    ",
"    XXXXXXXXXXXXXXXX                XXXXXXXX    ....XXXXXXXX    ",
"    XXXXXXXXXXXXXXXXXXXX........    XXXXXXXX    ....XXXXXXXX    ",
"    XXXXXXXXXXXXXXXXXXXX........    XXXXXXXX    ....XXXXXXXX    ",
"    XXXXXXXXXXXXXXXXXXXX........    XXXXXXXX    ....XXXXXXXX    ",
"    XXXXXXXXXXXXXXXXXXXX........    XXXXXXXX    ....XXXXXXXX    ",
"    XXXXXXXXXXXXXXXXXXXXXXXXXXXX    XXXXXXXX    ....XXXXXXXX    ",
"    XXXXXXXXXXXXXXXXXXXXXXXXXXXX    XXXXXXXX    ....XXXXXXXX    ",
"    XXXXXXXXXXXXXXXXXXXXXXXXXXXX    XXXXXXXX    ....XXXXXXXX    ",
"    XXXXXXXXXXXXXXXXXXXXXXXXXXXX    XXXXXXXX    ....XXXXXXXX    ",
"    XXXXXXXXXXXXXXXXXXXXXXXXXXXX                ....XXXXXXXX    ",
"    XXXXXXXXXXXXXXXXXXXXXXXXXXXX                ....XXXXXXXX    ",
"    XXXXXXXXXXXXXXXXXXXXXXXXXXXX                ....XXXXXXXX    ",
"    XXXXXXXXXXXXXXXXXXXXXXXXXXXX                ....XXXXXXXX    ",
"    XXXXXXXXXXXXXXXXXXXXXXXXXXXXXXXX................XXXXXXXX    ",
"    XXXXXXXXXXXXXXXXXXXXXXXXXXXXXXXX................XXXXXXXX    ",
"    XXXXXXXXXXXXXXXXXXXXXXXXXXXXXXXX................XXXXXXXX    ",
"    XXXXXXXXXXXXXXXXXXXXXXXXXXXXXXXX................XXXXXXXX    ",
"    XXXXXXXXXXXXXXXXXXXXXXXXXXXXXXXXXXXXXXXXXXXXXXXXXXXXXXXX    ",
"    XXXXXXXXXXXXXXXXXXXXXXXXXXXXXXXXXXXXXXXXXXXXXXXXXXXXXXXX    ",
"    XXXXXXXXXXXXXXXXXXXXXXXXXXXXXXXXXXXXXXXXXXXXXXXXXXXXXXXX    ",
"    XXXXXXXXXXXXXXXXXXXXXXXXXXXXXXXXXXXXXXXXXXXXXXXXXXXXXXXX    ",
"                                                                ",
"                                                                ",
"                                                                ",
"                                                                "
};
