/* XPM */
static char * char_xpm[] = {
"64 64 643 2",
"  	c #FCE099",
". 	c #FEE098",
"+ 	c #FDE099",
"@ 	c #F9D790",
"# 	c #FAD891",
"$ 	c #FAD48E",
"% 	c #FBD48F",
"& 	c #FCD791",
"* 	c #FCD790",
"= 	c #FBD791",
"- 	c #FBDB9A",
"; 	c #FBDC9B",
"> 	c #FBDC9A",
", 	c #FADD9B",
"' 	c #F9DE9B",
") 	c #F9DD9A",
"! 	c #FBD88D",
"~ 	c #FCD88C",
"{ 	c #FBD78C",
"] 	c #FACC84",
"^ 	c #FACD84",
"/ 	c #F9CC83",
"( 	c #EDC07B",
"_ 	c #EEC07B",
": 	c #F1C57D",
"< 	c #F2C67D",
"[ 	c #F1C67D",
"} 	c #FBCF86",
"| 	c #FACE85",
"1 	c #F0C27D",
"2 	c #F0C27E",
"3 	c #EFC27D",
"4 	c #E9B975",
"5 	c #EAB976",
"6 	c #E9B874",
"7 	c #F4C47C",
"8 	c #F5C57D",
"9 	c #F8D790",
"0 	c #F9D891",
"a 	c #FAD38E",
"b 	c #FCD692",
"c 	c #FADB9A",
"d 	c #FADC9A",
"e 	c #F9DD9B",
"f 	c #000000",
"g 	c #F9CD84",
"h 	c #F8CC83",
"i 	c #EDC07C",
"j 	c #EDBF7B",
"k 	c #FBCF85",
"l 	c #F9CE85",
"m 	c #EFC17D",
"n 	c #EFC27E",
"o 	c #EEC17D",
"p 	c #4F2D1B",
"q 	c #FDE098",
"r 	c #F8D68F",
"s 	c #F9D38E",
"t 	c #F9D38D",
"u 	c #FBD790",
"v 	c #FAD690",
"w 	c #FAD691",
"x 	c #F9D691",
"y 	c #FADB99",
"z 	c #F9DB99",
"A 	c #ECBF7A",
"B 	c #ECC07A",
"C 	c #F0C57D",
"D 	c #F9CE84",
"E 	c #FACF85",
"F 	c #EEC17C",
"G 	c #E8B874",
"H 	c #E8B873",
"I 	c #F3C47C",
"J 	c #FDDD9A",
"K 	c #FEDE9A",
"L 	c #FDDD99",
"M 	c #FCD690",
"N 	c #FCD691",
"O 	c #FBD590",
"P 	c #F7D68F",
"Q 	c #F7D68E",
"R 	c #FCD591",
"S 	c #FCD590",
"T 	c #FBDF9C",
"U 	c #FADF9B",
"V 	c #FAE19E",
"W 	c #F9E09D",
"X 	c #F8D58F",
"Y 	c #F9D58F",
"Z 	c #F8D48E",
"` 	c #FAD087",
" .	c #A13F01",
"..	c #EFC37B",
"+.	c #EFC37A",
"@.	c #FDD186",
"#.	c #FCD185",
"$.	c #FBD081",
"%.	c #FACF80",
"&.	c #ECBC78",
"*.	c #ECBC77",
"=.	c #F1C37B",
"-.	c #F0C37B",
";.	c #F7CB82",
">.	c #F8CB82",
",.	c #F7CA81",
"'.	c #FEDD9A",
").	c #FFDE9B",
"!.	c #FEDD99",
"~.	c #FDD691",
"{.	c #FBD591",
"].	c #FBE09D",
"^.	c #FAE19F",
"/.	c #F9E19E",
"(.	c #FAD58F",
"_.	c #F8D58E",
":.	c #F0C47B",
"<.	c #FED287",
"[.	c #EDBC79",
"}.	c #F1C47B",
"|.	c #2B180B",
"1.	c #FBD58F",
"2.	c #F7D58F",
"3.	c #FBD690",
"4.	c #FAD591",
"5.	c #FADE9B",
"6.	c #F9E19F",
"7.	c #FAE19D",
"8.	c #F0C37A",
"9.	c #EFC27A",
"0.	c #FDD185",
"a.	c #FDD184",
"b.	c #FBCE80",
"c.	c #FBCF81",
"d.	c #EBBB76",
"e.	c #ECBB77",
"f.	c #F1C37A",
"g.	c #F0C47A",
"h.	c #F7CB81",
"i.	c #FCDC96",
"j.	c #FDDC95",
"k.	c #F7D58E",
"l.	c #F6D68E",
"m.	c #F9E09F",
"n.	c #F9E1A0",
"o.	c #F9E0A0",
"p.	c #FBDFA0",
"q.	c #FBDF9F",
"r.	c #FAD996",
"s.	c #FAD895",
"t.	c #F9D28D",
"u.	c #FBD289",
"v.	c #FCD289",
"w.	c #853201",
"x.	c #FCD087",
"y.	c #F6C980",
"z.	c #F6CA81",
"A.	c #F5C980",
"B.	c #F4C47F",
"C.	c #F4C480",
"D.	c #F3C37F",
"E.	c #F2C278",
"F.	c #F3C379",
"G.	c #F6CA7E",
"H.	c #F6CA7F",
"I.	c #F5CA7E",
"J.	c #FACF81",
"K.	c #FCDC95",
"L.	c #F5D68E",
"M.	c #FAE1A0",
"N.	c #FAE1A1",
"O.	c #F9E0A1",
"P.	c #FCDFA1",
"Q.	c #FCE0A1",
"R.	c #FAD38D",
"S.	c #FCD389",
"T.	c #FDD389",
"U.	c #FBD086",
"V.	c #F5C481",
"W.	c #F4C37F",
"X.	c #F2C378",
"Y.	c #FAEE4D",
"Z.	c #FBDC95",
"`.	c #FCDE9F",
" +	c #FCDEA0",
".+	c #FBDE9E",
"++	c #FAD894",
"@+	c #F9D28C",
"#+	c #FCD288",
"$+	c #FBD087",
"%+	c #F6C881",
"&+	c #F5C880",
"*+	c #F3C480",
"=+	c #F3C380",
"-+	c #F3C27E",
";+	c #F6CA7D",
">+	c #F9CE80",
",+	c #FCD890",
"'+	c #FCD891",
")+	c #FBD890",
"!+	c #F0C98A",
"~+	c #F0C889",
"{+	c #F7D08C",
"]+	c #F7D18C",
"^+	c #FAD58E",
"/+	c #FAD48D",
"(+	c #FAD187",
"_+	c #FBD089",
":+	c #FBD08A",
"<+	c #FDFDFD",
"[+	c #F4C87F",
"}+	c #E9BC76",
"|+	c #E8BC77",
"1+	c #E8BB76",
"2+	c #FBCC81",
"3+	c #FCCC82",
"4+	c #FACB7E",
"5+	c #FECF80",
"6+	c #FECF81",
"7+	c #FDCF80",
"8+	c #FDD891",
"9+	c #F1C98A",
"0+	c #F1C98B",
"a+	c #F8D18C",
"b+	c #F7D08B",
"c+	c #FBD58E",
"d+	c #FBD187",
"e+	c #FBD08B",
"f+	c #E9BC77",
"g+	c #E9BC78",
"h+	c #E8BB77",
"i+	c #FBCC82",
"j+	c #FCCC81",
"k+	c #FBCC7E",
"l+	c #FFD082",
"m+	c #FCD88F",
"n+	c #FDD890",
"o+	c #FBD88F",
"p+	c #EFC889",
"q+	c #F7D08D",
"r+	c #F8D18D",
"s+	c #FAD58C",
"t+	c #FAD188",
"u+	c #E9BB76",
"v+	c #EEC07C",
"w+	c #FBCC80",
"x+	c #F9CB7D",
"y+	c #FBCF7F",
"z+	c #FBD691",
"A+	c #F1CA85",
"B+	c #F1C984",
"C+	c #F1C482",
"D+	c #F1C582",
"E+	c #F0C482",
"F+	c #FCD58F",
"G+	c #FCD68F",
"H+	c #FCD58E",
"I+	c #F3C682",
"J+	c #EFBF78",
"K+	c #EEBE78",
"L+	c #F6C480",
"M+	c #F6C481",
"N+	c #F5C480",
"O+	c #F9C980",
"P+	c #F7C87F",
"Q+	c #FAD48C",
"R+	c #FAD58D",
"S+	c #F9D48C",
"T+	c #EEC57B",
"U+	c #EFC57A",
"V+	c #EEC47A",
"W+	c #FBD792",
"X+	c #F2C582",
"Y+	c #F7D18B",
"Z+	c #FDD68F",
"`+	c #FDD790",
" @	c #FCD68E",
".@	c #F3C683",
"+@	c #F0C078",
"@@	c #EFBF77",
"#@	c #F7C482",
"$@	c #F9C981",
"%@	c #F7C880",
"&@	c #FBD48D",
"*@	c #EFC57B",
"=@	c #FAD590",
"-@	c #F0C883",
";@	c #F6D08B",
">@	c #F6D18B",
",@	c #F6D18A",
"'@	c #EEBE76",
")@	c #F6C380",
"!@	c #F6C381",
"~@	c #F5C380",
"{@	c #F8C880",
"]@	c #EEC57C",
"^@	c #ECC57B",
"/@	c #F4C888",
"(@	c #F4C989",
"_@	c #F2C988",
":@	c #EFC283",
"<@	c #F0C283",
"[@	c #EFC282",
"}@	c #FAD28D",
"|@	c #F4CA87",
"1@	c #F4CA86",
"2@	c #F4C986",
"3@	c #EABC7D",
"4@	c #F6C981",
"5@	c #EAB875",
"6@	c #EBB876",
"7@	c #F5C57C",
"8@	c #F6C67C",
"9@	c #F5C57B",
"0@	c #F4CE8E",
"a@	c #F3CD8E",
"b@	c #DEB57B",
"c@	c #DFB67C",
"d@	c #DEB57A",
"e@	c #F4C889",
"f@	c #F5C98A",
"g@	c #F3C989",
"h@	c #F0C284",
"i@	c #FAD28E",
"j@	c #F5CA86",
"k@	c #EABC7E",
"l@	c #F4CE8F",
"m@	c #F3CE8F",
"n@	c #DEB67B",
"o@	c #DFB77C",
"p@	c #DEB67A",
"q@	c #F3C888",
"r@	c #F3C988",
"s@	c #F3CA86",
"t@	c #F3C986",
"u@	c #EBBC7D",
"v@	c #F5C67C",
"w@	c #DFB57A",
"x@	c #DFB67A",
"y@	c #DFB579",
"z@	c #EEC17F",
"A@	c #EEC17E",
"B@	c #F8D08C",
"C@	c #C4C4C4",
"D@	c #F0C380",
"E@	c #F0C280",
"F@	c #F1C481",
"G@	c #F37D20",
"H@	c #F8C97E",
"I@	c #E3B070",
"J@	c #E3B06F",
"K@	c #ECBA74",
"L@	c #ECBB73",
"M@	c #EBBA73",
"N@	c #EEC27F",
"O@	c #EFC27F",
"P@	c #F1C581",
"Q@	c #E4B170",
"R@	c #EDBA74",
"S@	c #EDBB74",
"T@	c #FBF183",
"U@	c #F9EB30",
"V@	c #0094CB",
"W@	c #F0C581",
"X@	c #FACE82",
"Y@	c #E2B06F",
"Z@	c #EBBA74",
"`@	c #FCD892",
" #	c #ADAEAE",
".#	c #F6CA86",
"+#	c #FAD48A",
"@#	c #FAD58A",
"##	c #E7BA75",
"$#	c #E9B674",
"%#	c #E8B673",
"&#	c #FCCD7D",
"*#	c #FBCC7C",
"=#	c #FDD892",
"-#	c #E7BA76",
";#	c #F1C07C",
">#	c #FBCA83",
",#	c #FBCB83",
"'#	c #F9CB82",
")#	c #E6B372",
"!#	c #EAB775",
"~#	c #D09465",
"{#	c #F2C17E",
"]#	c #E7B473",
"^#	c #FBD892",
"/#	c #F0C07C",
"(#	c #FACA82",
"_#	c #F9CA82",
":#	c #E8B672",
"<#	c #FBCD7C",
"[#	c #F9DE9A",
"}#	c #B87036",
"|#	c #50D0FF",
"1#	c #E3B573",
"2#	c #E2B472",
"3#	c #D5A267",
"4#	c #D5A266",
"5#	c #E7B572",
"6#	c #E8B573",
"7#	c #FACC7D",
"8#	c #F7CA7C",
"9#	c #F6CA7C",
"0#	c #E3B673",
"a#	c #D6A267",
"b#	c #D6A268",
"c#	c #FBCC7D",
"d#	c #F6CB7C",
"e#	c #E2B573",
"f#	c #F6CF86",
"g#	c #F9D38C",
"h#	c #F8D38B",
"i#	c #F9D890",
"j#	c #F3C681",
"k#	c #E3B473",
"l#	c #D6A266",
"m#	c #E7B571",
"n#	c #F8D892",
"o#	c #F8D891",
"p#	c #EEC37D",
"q#	c #FBDD95",
"r#	c #FADC95",
"s#	c #FAD890",
"t#	c #E76905",
"u#	c #E4B471",
"v#	c #E9B774",
"w#	c #F3C17B",
"x#	c #F4C17B",
"y#	c #F2C17A",
"z#	c #F7C77D",
"A#	c #F8C87E",
"B#	c #F5D07F",
"C#	c #F5CF7F",
"D#	c #F9D892",
"E#	c #EFC37E",
"F#	c #FBD48E",
"G#	c #E9B673",
"H#	c #F4C27B",
"I#	c #F3C17A",
"J#	c #FACB7D",
"K#	c #F4CF7F",
"L#	c #F0C37F",
"M#	c #FBCFB4",
"N#	c #F9AF81",
"O#	c #F7D790",
"P#	c #F8CE88",
"Q#	c #EEC27D",
"R#	c #F2C179",
"S#	c #F6C77D",
"T#	c #F6C77B",
"U#	c #F9CB7C",
"V#	c #EFC381",
"W#	c #EFC380",
"X#	c #EFC280",
"Y#	c #F1C480",
"Z#	c #F0C47F",
"`#	c #FCDD90",
" $	c #FCD386",
".$	c #FDD387",
"+$	c #FBD286",
"@$	c #F9CD81",
"#$	c #F7D789",
"$$	c #F7D689",
"%$	c #F0C381",
"&$	c #EDC07D",
"*$	c #F2C581",
"=$	c #F1C580",
"-$	c #F7D78A",
";$	c #EFC37F",
">$	c #ECC07E",
",$	c #ECC07D",
"'$	c #F0C57F",
")$	c #F8D78A",
"!$	c #F7D788",
"~$	c #FAD08A",
"{$	c #F7CA86",
"]$	c #F6CD81",
"^$	c #F7CD81",
"/$	c #FBD58A",
"($	c #F9D087",
"_$	c #F9D089",
":$	c #FAD589",
"<$	c #F6CD7F",
"[$	c #FBD287",
"}$	c #F5CA81",
"|$	c #F4C980",
"1$	c #F6C879",
"2$	c #E7B373",
"3$	c #F7C879",
"4$	c #424242",
"5$	c #FBD085",
"6$	c #FCD086",
"7$	c #F4C981",
"8$	c #E5B372",
"9$	c #E5B472",
"0$	c #F6C878",
"a$	c #F7CB85",
"b$	c #F7CB86",
"c$	c #F7CA85",
"d$	c #E9B775",
"e$	c #EBBA77",
"f$	c #EBBB77",
"g$	c #EABA76",
"h$	c #F6CA82",
"i$	c #E4DDBC",
"j$	c #E8B56B",
"k$	c #F8CB87",
"l$	c #ECBB78",
"m$	c #EBBA76",
"n$	c #E8B56C",
"o$	c #F5CA80",
"p$	c #F6CB85",
"q$	c #F6CA85",
"r$	c #EAB874",
"s$	c #F5CA82",
"t$	c #F3C27C",
"u$	c #F2C27B",
"v$	c #F0C180",
"w$	c #DBA86C",
"x$	c #DBA86D",
"y$	c #DAA76C",
"z$	c #DDAB70",
"A$	c #DDAC70",
"B$	c #DDAB6F",
"C$	c #DCAB6A",
"D$	c #F78E4E",
"E$	c #D3C994",
"F$	c #792D01",
"G$	c #ECBB6F",
"H$	c #ECBA6F",
"I$	c #F3C27B",
"J$	c #F3C37B",
"K$	c #F2C37B",
"L$	c #DCA86E",
"M$	c #DBA76D",
"N$	c #DEAC71",
"O$	c #DDAB6A",
"P$	c #FADA8D",
"Q$	c #FAD98D",
"R$	c #F7D286",
"S$	c #F8D287",
"T$	c #F8D286",
"U$	c #F9CD7F",
"V$	c #EDBC6F",
"W$	c #FADA8E",
"X$	c #F9CE7F",
"Y$	c #F3C275",
"Z$	c #F2C17B",
"`$	c #F1C17B",
" %	c #DBA76C",
".%	c #DAA76B",
"+%	c #DCAA6E",
"@%	c #DBAA6B",
"#%	c #EDC47E",
"$%	c #FAD98E",
"%%	c #F7D285",
"&%	c #F2C174",
"*%	c #ECBB6D",
"=%	c #ECBA6E",
"-%	c #DDAC6B",
";%	c #DDAC6A",
">%	c #E5B875",
",%	c #E4B875",
"'%	c #ECBF77",
")%	c #ECBE77",
"!%	c #EDC178",
"~%	c #EDC177",
"{%	c #EEC279",
"]%	c #F8D78E",
"^%	c #F9D388",
"/%	c #F9D387",
"(%	c #F7CC7E",
"_%	c #F7CD7E",
":%	c #F7CB7D",
"<%	c #FBCD7F",
"[%	c #E4B26A",
"}%	c #C1B569",
"|%	c #A69843",
"1%	c #F9CA76",
"2%	c #FACA76",
"3%	c #F9C975",
"4%	c #DEAC6B",
"5%	c #DEAD6B",
"6%	c #DCAB6B",
"7%	c #E6B976",
"8%	c #E5B975",
"9%	c #ECC077",
"0%	c #F8D88E",
"a%	c #F9D489",
"b%	c #FAD489",
"c%	c #F8CC7E",
"d%	c #F8CD7E",
"e%	c #F7CC7D",
"f%	c #FCCD7F",
"g%	c #E4B26B",
"h%	c #F5CF84",
"i%	c #F5CE82",
"j%	c #F4C376",
"k%	c #F4C375",
"l%	c #F8CA76",
"m%	c #F9CB76",
"n%	c #F8CA75",
"o%	c #FACA75",
"p%	c #F9D990",
"q%	c #FACC7E",
"r%	c #E4B16A",
"s%	c #E3B16A",
"t%	c #F5CE84",
"u%	c #DCAC6B",
"v%	c #DDAC6C",
"w%	c #DDAD6C",
"x%	c #E5B976",
"y%	c #E5B974",
"z%	c #ECBF78",
"A%	c #ECBF76",
"B%	c #EEC178",
"C%	c #EEC379",
"D%	c #EEC378",
"E%	c #FAD88E",
"F%	c #FAD88F",
"G%	c #F9D88D",
"H%	c #FAD488",
"I%	c #FBD489",
"J%	c #FAD387",
"K%	c #F9CD7E",
"L%	c #F8CB7D",
"M%	c #FBCC7F",
"N%	c #EFBF72",
"O%	c #F0BF72",
"P%	c #EFBE71",
"Q%	c #E5B16A",
"R%	c #EABE74",
"S%	c #E9BE74",
"T%	c #F6CE83",
"U%	c #F6CF83",
"V%	c #F5C375",
"W%	c #F8CA77",
"X%	c #F8CB77",
"Y%	c #FACA77",
"Z%	c #FBCA78",
"  . . + @ # # @ $ % % % % % % $ & & & * & & & = - ; ; > , ' ' ) ! ~ ~ { ] ^ ^ / ( ( ( _ : < < [ } } } | 1 2 2 3 4 5 5 6 7 8 8 7 ",
"+ . . + 9 0 0 9 $ % % % % % % a & & & * b & & = c ; ; d e ' f f f f f f f f g h ( i i j : < < : k } } l m n n o 4 5 5 6 7 8 8 7 ",
"+ . . + 9 0 0 9 $ % % % % % % a & & & * b & & = c ; ; d e f p p p p p p p p f h ( i i j : < < : k } } l m n n o 4 5 5 6 7 8 8 7 ",
"  q q + @ 0 0 r s a a s $ $ $ t u u u v w x x x y y y z ) f p p p p p p p p f f A B B A : : : C D E E D F o o _ G G G H I I I I ",
"J K K L M N N O P P P Q R S S O T T T U V V V W X Y Y Z ` f  . . . . . . . . . .f ....+.@.@.@.#.$.$.$.%.&.&.&.*.=.-.-.-.;.>.>.,.",
"'.).).!.N ~.~.O P P P Q N ~.~.{.T ].].U ^.V V /.Y (.(._.f f  . . . . . . . . . .f :.:.+.@.<.<.@.$.$.$.%.&.[.[.&.}.:.:.:.;.h h ,.",
"'.).).!.N ~.~.O P P P Q N ~.~.{.T ].].U ^.V V /.Y (.(.f |.|. . .p p p p  . .p p f :.:.+.@.<.<.@.$.$.$.%.&.[.[.&.}.:.:.:.;.h h ,.",
"L !.!.L O M M 1.r P P 2.{.3.3.4.5.U U 5.^.6.6.7.Y Y Y f |.|. . .p p p p  . .p p f 8.8.9.@.0.0.a.b.c.c.b.d.e.e.d.f.g.g.g.h.h.h.,.",
"i.j.j.i.k.P P l.m.n.n.o.p.p.p.q.r.r.r.s.t t t t.u.v.v.f  . .|.|.w.w.w.w.w.w.w.w.f x.x.} y.z.z.A.B.C.C.D.E.F.F.E.G.H.H.I.J.J.J.J.",
"i.j.j.K.k.P P L.M.N.N.O.P.Q.Q.q.r.r.r.s.t a a R.S.T.T.f  . .|.|.w.w.w.w.w.w.w.w.f x.x.U.y.z.z.A.C.V.V.W.F.F.F.X.H.H.H.G.J.$.$.J.",
"i.j.j.K.k.P P L.M.N.N.O.P.Q.Q.q.r.r.r.s.t a a R.S.T.T.f Y.Y.|.|.p p p p w.w.p p f x.x.U.y.z.z.A.C.V.V.W.F.F.F.X.H.H.H.G.J.$.$.J.",
"K.K.K.Z.Q Q Q k.m.m.m.m.`. + +.+s.++++++t.t.t.@+u.#+#+f Y.Y.|.|.p p p p w.w.p p f $+$+$+%+A.A.&+*+=+=+-+F.F.F.X.G.G.G.;+%.c.c.>+",
",+'+'+)+M M M R !+!+!+~+{+]+]+{+$ ^+^+/+(+(+(+(+_+:+:+f w.w.p p p p <+<+<+<+p p f [+[+[+}+|+|+1+i i i ( 2+3+3+2+4+4+4+4+5+6+6+7+",
",+8+8+)+N ~.~.R 9+0+0+~+a+a+a+b+c+c+c+/+(+d+d+d+:+e+f f w.w.p p p p <+<+<+<+p p f f A.[+f+g+g+h+i i i ( i+3+3+j+4+k+k+4+6+l+l+5+",
",+8+8+)+N ~.~.R 9+0+0+~+a+a+a+b+c+c+c+/+(+d+d+d+:+f  . .w.w. . .p p  . . . .p p  . .f [+f+g+g+h+i i i ( i+3+3+j+4+k+k+4+6+l+l+5+",
"m+n+n+o+O O O O ~+~+~+p+q+r+r+{+^+^+^+s+t+t+t+t+f f  . .w.w. . .p p  . . . .p p  . .f f u+u+u+1+v+v+v+( 2+j+j+w+x+x+x+x+7+7+7+y+",
"z+z+z+v A+A+A+B+C+D+D+E+b+a+a+b+F+G+G+H+I+I+I+f  . .w.w.w.w.w.w.p p p p p p p p w.w. . .f J+J+K+L+M+M+N+O+O+O+P+Q+R+R+S+T+U+U+V+",
"W+& & 3.A+A+A+B+D+X+X+C+b+a+a+Y+Z+`+`+ @I+.@f f  . .w.w.w.w.w.w.p p p p p p p p w.w. . .f f +@@@M+#@#@M+$@$@$@%@&@c+c+Q+T+*@*@T+",
"W+& & 3.A+A+A+B+D+X+X+C+b+a+a+Y+Z+`+`+ @I+f  . . . . . . . . . .w.w.w.w.w.w.w.w. . . . . . .f @@M+#@#@M+$@$@$@%@&@c+c+Q+T+*@*@T+",
"w 3.3.=@B+B+B+-@D+D+D+E+;@>@>@,@H+G+G+H+f f  . . . . . . . . . .w.w.w.w.w.w.w.w. . . . . . .f '@)@!@!@~@O+O+O+{@Q+Q+Q+S+]@T+T+^@",
"/@(@(@_@:@<@<@[@}@}@}@@+|@1@1@2@3@3@3@f  . . . . . . . . . . . . . . . . . . . . . .w.w. . .f 4@5@6@6@5@7@8@8@9@0@0@0@a@b@c@c@d@",
"e@f@f@g@h@h@h@:@i@a a @+|@j@j@1@3@k@k@f  . . . . . . . . . . . . . . . . . . . . . .w.w. . .f f 5@6@f f f f 8@7@l@l@l@m@n@o@o@p@",
"e@f@f@g@h@h@h@:@i@a a @+|@j@j@1@3@k@k@f w.w. . . . .w.w. . . . . . . . .w.w. . . . .w.w.w.w. . .f f w.w.w.w.f 7@l@l@l@m@n@o@o@p@",
"q@r@r@q@:@:@f f f f f f s@1@1@t@u@u@u@f w.w. . . . .w.w. . . . . . . . .w.w. . . . .w.w.w.w. . .f f w.w.w.w.f v@0@l@l@m@w@x@x@y@",
"z@z@z@A@B@f C@C@C@C@C@C@f D@D@E@F@F@F@f  . .w.w.w.w. . .w.w.w.w.w.w.w.w.w.w.w.w.w.w.w.w. . . . .G@G@ . . . .f H@I@I@I@J@K@L@L@M@",
"N@O@O@A@f f C@C@C@C@C@C@f f D@E@P@X+X+f  . .w.w.w.w. . .w.w.w.w.w.w.w.w.w.w.w.w.w.w.w.w. . . . .G@G@ . . . .f f I@Q@Q@J@R@S@S@K@",
"N@O@O@f T@T@U@U@T@T@U@U@T@T@f E@P@X+X+f  . . . .f f  . . . . . . . . . .w.w. . . . .f f  . .G@G@V@V@ . . . .G@G@f Q@Q@J@R@S@S@K@",
"z@z@z@f T@T@U@U@T@T@U@U@T@T@f E@W@W@W@f  . . . .f #+ . . . . . . . . . .w.w. . . . .X@f  . .G@G@V@V@ . . . .G@G@f I@I@Y@Z@M@M@M@",
"`@`@`@f  # # # # # # # # # #f .#+#@#@#f V@V@V@V@f :+ . . . . . . . . . .w.w. . . . .##f G@G@f f f f f f f f G@G@f $#$#%#&#&#&#*#",
"`@=#=#f  # # # # # # # # # #f f f f f f V@V@V@V@f e+ . . . . . . . . . .w.w. . . . .-#f G@G@f ;#>#,#,#'#)#f G@G@f f !#%#&#&#&#*#",
"`@=#=#f C@C@C@C@C@C@C@C@C@C@~#~#~#~#w.w.w.w.w.w.~#~# . . . . . . . . . . . . . . . .G@G@f f {#;#>#,#,#'#)#]#f f G@G@f %#&#&#&#*#",
"^#`@`@f C@C@C@C@C@C@C@C@C@C@~#~#~#~#w.w.w.w.w.w.~#~# . . . . . . . . . . . . . . . .G@G@f /#/#/#(#(#(#_#)#)#)#f G@G@f :#<#<#<#*#",
") [#[#f C@C@C@C@C@C@C@C@C@C@}#}#}#}# . . . . . .}#}#|#|#|#|#|#|#|#|#|#|#|#|#|#|#|#|#G@G@f 1#1#2#3#3#3#4#5#6#6#f G@G@f 7#8#9#9#9#",
"[#' ' f C@C@C@C@C@C@C@C@C@C@}#}#}#}# . . . . . .}#}#|#|#|#|#|#|#|#|#|#|#|#|#|#|#|#|#G@G@f 0#0#2#a#b#b#a#6#6#6#f G@G@f c#8#d#d#9#",
"[#' ' f C@C@C@C@C@C@C@C@C@C@f f f f f f f f f f f f |#|#|#|#|#|#|#|#|#|#|#|#|#|#G@G@f f e#0#0#2#a#b#b#a#6#6#6#f G@G@f c#8#d#d#9#",
") ) ) f C@C@C@C@C@C@C@C@C@C@f f#g#g#g#h#i#i#i#i#`@f |#|#|#|#|#|#|#|#|#|#|#|#|#|#G@G@f j#2#1#1#k#l#l#l#4#m#m#m#f G@G@f f 9#d#d#9#",
"n#o#o#f T@T@U@U@T@T@U@U@T@T@f p#/+/+/+Q+Z.q#q#r#s#f t#t#t#t#t#t#t#t#t#t#t#t#t#t#G@G@f u#v#v#v#%#w#x#x#y#z#A#A#z#f f G@G@f B#B#C#",
"D#0 0 f T@T@U@U@T@T@U@U@T@T@f E#F#c+c+/+q#q#f f f f t#t#t#t#t#t#t#t#t#t#t#t#t#t#G@G@f f f f !#G#w#H#H#I#z#A#A#z#J#f G@G@f B#B#K#",
"D#0 0 f f f  # # # # # #f f L#E#F#c+c+/+q#f M#M#M#M#G@G@G@G@G@G@G@G@G@G@N#N#G@G@N#N#M#M#M#M#f G#w#H#H#I#z#A#A#z#J#f G@G@f B#B#K#",
"9 9 9 O#P#f  # # # # # #f n n Q#Q+/+/+Q+f f M#M#M#M#G@G@G@G@G@G@G@G@G@G@N#N#G@G@N#N#M#M#M#M#f f f f R#y#S#S#S#T#U#f G@G@f B#B#C#",
"V#W#W#X#O@W#f f f f f f Y#Y#Y#Z#} $+$+f M#M#M#M#M#M#N#N#w.w.w.w.N#N#N#N#M#M#G@G@M#M#M#M#M#M#M#M#M#M#f `# $.$.$+$@$f G@G@f #$#$$$",
"%$D@D@O@O@D@D@O@&$&$&$&$Y#*$*$=$} x.f f M#M#M#M#M#M#N#N#w.w.w.w.N#N#N#N#M#M#G@G@M#M#M#M#M#M#M#M#M#M#f f f f f f f f G@G@f -$-$#$",
"%$D@D@O@O@D@D@O@&$&$&$&$Y#*$*$=$} f M#M#M#M#M#M#M#M#M#M# . .N#N#M#M#M#M#M#M#G@G@N#N#N#N#N#N#M#M#M#M#M#M#N#N#N#N#N#N#N#N#f -$-$#$",
"W#W#W#O@O@;$;$N@>$,$f f Y#Y#Y#'$f f M#M#M#M#M#M#M#M#M#M# . .N#N#M#M#M#M#M#M#G@G@N#N#N#N#N#N#M#M#M#M#M#M#N#N#N#N#N#N#N#N#f f )$!$",
"` ` ` ` ` ` ` ` ~$f N#N#f {${$f M#M#M#M#M#M#M#M# . .G@G@ . .M#M#M#M#M#M#M#M#G@G@M#M#N#N#N#N#N#N#M#M#M#M#M#M#N#N#N#N#f f G@G@f ]$",
"` d+d+d+d+d+d+d+:+f N#N#f f f f M#M#M#M#M#M#M#M# . .G@G@ . .M#M#M#M#M#M#M#M#G@G@M#M#N#N#N#N#N#N#M#M#M#M#M#M#N#N#N#N#f f G@G@f ^$",
"` d+d+d+d+d+d+d+:+e+f f N#N#N#N#M#M#M#M#M#M#M#M#t#t#t#t#t#t#M#M#M#M#M#M#M#M#G@G@M#M#M#M#N#N#M#M#M#M#M#M#M#M#M#M#f f /$f G@G@f ^$",
"($($($($` ` ` ` _$_$_$f N#N#N#N#M#M#M#M#M#M#M#M#t#t#t#t#t#t#M#M#M#M#M#M#M#M#G@G@M#M#M#M#N#N#M#M#M#M#M#M#M#M#M#M#f f :$f G@G@f <$",
"U.$+$+$+#+#+#+[$}$}$}$|$f f N#N#M#M#M#M#M#M#M#M#N#N#N#N#N#N#M#M#M#M#M#M#M#M#G@G@M#M#M#M#M#M#M#M#M#M#M#M#M#M#M#M#M#M#f f G@G@f 1$",
"U.x.x.$+#+T.T.[$}$z.z.A.2$f N#N#M#M#M#M#M#M#M#M#N#N#N#N#N#N#M#M#M#M#M#M#M#M#G@G@M#M#M#M#M#M#M#M#M#M#M#M#M#M#M#M#M#M#f f G@G@f 3$",
"U.x.x.$+#+T.T.[$}$z.z.A.2$]#f f M#M#M#M#M#M#M#M#M#M#M#M#M#M#M#M#N#N#M#M#M#M#N#N#G@G@M#M#M#M#4$4$M#M#M#M#M#M#M#M#M#M#f f G@G@f 3$",
"5$6$6$k [$#+#+[$7$|$|$|$8$9$9$f M#M#M#M#M#M#M#M#M#M#M#M#M#M#M#M#N#N#M#M#M#M#N#N#G@G@M#M#M#M#4$4$M#M#M#M#M#M#M#M#M#M#f f G@G@f 0$",
"a$b$b$c$5@5@5@d$e$f$f$g$h$z.z.f N#N#M#M#M#M#M#M#N#N#M#M#M#M#M#M#N#N#M#M#M#M#M#M#N#N#G@G@i$i$M#M#M#M#M#M#M#M#M#M#M#M#f f i$i$f j$",
"b$k$k${$6@6@6@!#l$l$l$m$h$z.z.f N#N#M#M#M#M#M#M#N#N#M#M#M#M#M#M#N#N#M#M#M#M#M#M#N#N#G@G@i$i$M#M#M#M#M#M#M#M#M#M#M#M#f f i$i$f n$",
"b$k$k${$6@6@6@!#l$l$l$m$h$z.z.o$f f M#M#M#M#M#M#N#N#N#N#N#N#N#N#N#N#M#M#M#M#M#M#N#N#N#N#i$i$i$i$M#M#N#N#N#N#N#N#N#N#N#N#i$i$f n$",
"p$a$a$q$r$5@5@v#g$g$g$g$s$s$s$}$4@f M#M#M#M#M#M#N#N#N#N#N#N#N#N#N#N#M#M#M#M#M#M#N#N#N#N#i$i$i$i$M#M#N#N#N#N#N#N#N#N#N#N#i$i$f n$",
"t$u$u$u$E@E@E@v$w$x$x$y$z$A$A$B$C$f M#M#M#M#N#N#f f f f f f f f f f N#N#M#M#M#M#f f D$D$E$E$i$i$G@G@N#N#F$F$N#N#F$F$N#N#f f G$H$",
"I$J$J$K$E@D@D@E@x$L$L$M$z$N$N$z$O$f M#M#M#M#N#N#f P$P$Q$R$S$S$T$U$f N#N#M#M#M#M#f f D$D$E$E$i$i$G@G@N#N#F$F$N#N#F$F$N#N#f V$V$G$",
"I$J$J$K$E@D@D@E@x$L$L$M$z$N$N$z$O$f M#M#M#M#f f W$P$P$Q$R$S$S$T$U$X$f f M#M#M#M#f Y$f f D$D$E$E$t#t#t#t#N#N#N#N#N#N#t#t#f V$V$G$",
"Z$u$u$`$v$E@E@v$ % % %.%B$B$B$+%@%f M#M#M#M#f #%$%W$W$Q$R$R$R$%%U$U$U$f M#M#M#M#f &%&%f D$D$E$E$t#t#t#t#N#N#N#N#N#N#t#t#f *%*%=%",
"-%;%;%C$>%>%>%,%'%'%'%)%!%~%~%~%{%f i$i$E$E$f ]%^%^%^%/%(%_%_%:%k+<%<%f i$i$E$E$f [%[%f }%}%|%|%f f f f f f f f f f f f 1%2%2%3%",
"4%5%5%6%>%7%7%8%'%9%9%)%!%!%!%!%{%f i$i$E$E$f 0%a%b%b%/%c%d%d%e%k+f%f%f i$i$E$E$f g%g%f }%}%|%|%f h%h%i%j%j%j%k%l%m%m%n%1%2%2%o%",
"4%5%5%6%>%7%7%8%'%9%9%)%!%!%!%!%{%+.f f f f p%0%a%b%b%/%c%d%d%e%k+f%f%q%f f f f r%g%g%s%f f f f t%h%h%i%j%j%j%k%l%m%m%n%1%2%2%o%",
"u%v%w%-%>%x%x%y%z%'%'%A%B%B%B%!%C%+.+.D%E%F%F%G%H%I%I%J%U$K%K%L%M%<%<%M%N%O%O%P%Q%r%r%r%R%R%R%S%T%U%U%i%j%V%V%k%W%X%X%l%Y%Z%Z%1%"};
