/* XPM */
static char * hay_xpm[] = {
"64 64 545 2",
"  	c #FCE099",
". 	c #FEE098",
"+ 	c #FDE099",
"@ 	c #F9D790",
"# 	c #FAD891",
"$ 	c #FAD48E",
"% 	c #FBD48F",
"& 	c #FCD791",
"* 	c #FCD790",
"= 	c #FBD791",
"- 	c #FBDB9A",
"; 	c #FBDC9B",
"> 	c #FBDC9A",
", 	c #FADD9B",
"' 	c #F9DE9B",
") 	c #F9DD9A",
"! 	c #FBD88D",
"~ 	c #FCD88C",
"{ 	c #FBD78C",
"] 	c #FACC84",
"^ 	c #FACD84",
"/ 	c #F9CC83",
"( 	c #EDC07B",
"_ 	c #EEC07B",
": 	c #F1C57D",
"< 	c #F2C67D",
"[ 	c #F1C67D",
"} 	c #FBCF86",
"| 	c #FACE85",
"1 	c #F0C27D",
"2 	c #F0C27E",
"3 	c #EFC27D",
"4 	c #E9B975",
"5 	c #EAB976",
"6 	c #E9B874",
"7 	c #F4C47C",
"8 	c #F5C57D",
"9 	c #F8D790",
"0 	c #F9D891",
"a 	c #FAD38E",
"b 	c #FCD692",
"c 	c #FADB9A",
"d 	c #FADC9A",
"e 	c #F9DD9B",
"f 	c #FAD78C",
"g 	c #F9CD84",
"h 	c #F8CC83",
"i 	c #EDC07C",
"j 	c #EDBF7B",
"k 	c #FBCF85",
"l 	c #F9CE85",
"m 	c #EFC17D",
"n 	c #EFC27E",
"o 	c #EEC17D",
"p 	c #FDE098",
"q 	c #F8D68F",
"r 	c #F9D38E",
"s 	c #F9D38D",
"t 	c #FBD790",
"u 	c #FAD690",
"v 	c #FAD691",
"w 	c #F9D691",
"x 	c #FADB99",
"y 	c #F9DB99",
"z 	c #F9DD99",
"A 	c #FAD78B",
"B 	c #F9CB82",
"C 	c #F8CB82",
"D 	c #ECBF7A",
"E 	c #ECC07A",
"F 	c #F0C57D",
"G 	c #F9CE84",
"H 	c #FACF85",
"I 	c #EEC17C",
"J 	c #E8B874",
"K 	c #E8B873",
"L 	c #F3C47C",
"M 	c #FDDD9A",
"N 	c #FEDE9A",
"O 	c #FDDD99",
"P 	c #FCD690",
"Q 	c #FCD691",
"R 	c #FBD590",
"S 	c #F7D68F",
"T 	c #F7D68E",
"U 	c #000000",
"V 	c #F0C37B",
"W 	c #F7CB82",
"X 	c #F7CA81",
"Y 	c #FEDD9A",
"Z 	c #FFDE9B",
"` 	c #FEDD99",
" .	c #FDD691",
"..	c #FFDC2E",
"+.	c #FFF546",
"@.	c #FFF94A",
"#.	c #C67532",
"$.	c #BA572D",
"%.	c #EDD042",
"&.	c #FFE536",
"*.	c #D8912D",
"=.	c #DC992D",
"-.	c #FFE83A",
";.	c #FFEE3F",
">.	c #ECC92F",
",.	c #B59332",
"'.	c #F0C47B",
").	c #FBD58F",
"!.	c #F7CB81",
"~.	c #FCDC96",
"{.	c #FDDC95",
"].	c #F7D58E",
"^.	c #F6D68E",
"/.	c #C26B30",
"(.	c #F2DA44",
"_.	c #FFE335",
":.	c #CF802D",
"<.	c #E0A12D",
"[.	c #FFEA3C",
"}.	c #FFEC3D",
"|.	c #E3C02F",
"1.	c #FACF81",
"2.	c #FCDC95",
"3.	c #F5D68E",
"4.	c #FBD081",
"5.	c #FBDC95",
"6.	c #F6E446",
"7.	c #FFE133",
"8.	c #CB782D",
"9.	c #E9B22D",
"0.	c #DEBC2F",
"a.	c #B58B31",
"b.	c #B95A2D",
"c.	c #FCD890",
"d.	c #FCD891",
"e.	c #FBD890",
"f.	c #FDD891",
"g.	c #F6CB2D",
"h.	c #FFF344",
"i.	c #CB7F34",
"j.	c #E9C640",
"k.	c #DECC3F",
"l.	c #B58731",
"m.	c #FCD88F",
"n.	c #FDD890",
"o.	c #FBD88F",
"p.	c #FBD691",
"q.	c #FBD792",
"r.	c #FFBA45",
"s.	c #FFDF31",
"t.	c #C2672D",
"u.	c #FDC03F",
"v.	c #FFBF42",
"w.	c #CD7A33",
"x.	c #E99D3D",
"y.	c #F6AE42",
"z.	c #FCD036",
"A.	c #FFCD3A",
"B.	c #DEAF3B",
"C.	c #BE9F35",
"D.	c #BA9A33",
"E.	c #AD8C30",
"F.	c #A0822C",
"G.	c #A7792C",
"H.	c #B95E2D",
"I.	c #B8662E",
"J.	c #FFBB45",
"K.	c #C66931",
"L.	c #EDA23F",
"M.	c #FFD135",
"N.	c #FFC93A",
"O.	c #DAA73B",
"P.	c #AC8B2F",
"Q.	c #9E802C",
"R.	c #A5752C",
"S.	c #B9622D",
"T.	c #FBD690",
"U.	c #F4C888",
"V.	c #F4C989",
"W.	c #FFD532",
"X.	c #FFC140",
"Y.	c #FFD334",
"Z.	c #C66E2D",
"`.	c #EDB630",
" +	c #FFC73C",
".+	c #FFCC38",
"++	c #DAB432",
"@+	c #AC8C2F",
"#+	c #A2832D",
"$+	c #A9752D",
"%+	c #B45E2C",
"&+	c #B5682D",
"*+	c #B58931",
"=+	c #B58C31",
"-+	c #B08F30",
";+	c #F4C889",
">+	c #F5C98A",
",+	c #FFD730",
"'+	c #C66F2D",
")+	c #EDBA2D",
"!+	c #FFC53D",
"~+	c #FFCD38",
"{+	c #DAB730",
"]+	c #AA8A2F",
"^+	c #A8702C",
"/+	c #F3C888",
"(+	c #F3C988",
"_+	c #FFC43E",
":+	c #C66B30",
"<+	c #EDA939",
"[+	c #FFBE42",
"}+	c #FFC040",
"|+	c #D2A535",
"1+	c #A5852D",
"2+	c #A8892E",
"3+	c #AD8D30",
"4+	c #B18830",
"5+	c #B68030",
"6+	c #B77A2F",
"7+	c #B8692E",
"8+	c #B86C2E",
"9+	c #AA632B",
"0+	c #EEC17F",
"a+	c #CE9D38",
"b+	c #A8882E",
"c+	c #B68430",
"d+	c #A64E28",
"e+	c #EEC27F",
"f+	c #D37C36",
"g+	c #E5953C",
"h+	c #D98437",
"i+	c #E1903A",
"j+	c #F8B142",
"k+	c #E4AC3E",
"l+	c #D0A239",
"m+	c #B79132",
"n+	c #B86D2E",
"o+	c #B7712F",
"p+	c #B67C30",
"q+	c #B67F30",
"r+	c #B49231",
"s+	c #A6872E",
"t+	c #AF792E",
"u+	c #C26330",
"v+	c #F2A840",
"w+	c #D5A43A",
"x+	c #A9892F",
"y+	c #B39131",
"z+	c #CE9F38",
"A+	c #AE812F",
"B+	c #B7752F",
"C+	c #B58F31",
"D+	c #B6762F",
"E+	c #AD702D",
"F+	c #C89936",
"G+	c #EAB33F",
"H+	c #C0622F",
"I+	c #E1A13C",
"J+	c #F9B943",
"K+	c #F1B541",
"L+	c #BF9634",
"M+	c #B0822F",
"N+	c #AA6E2C",
"O+	c #AE7B2E",
"P+	c #AC842F",
"Q+	c #B9592D",
"R+	c #B7782F",
"S+	c #AE742D",
"T+	c #AC6C2C",
"U+	c #D1A939",
"V+	c #BC612E",
"W+	c #CC9936",
"X+	c #F3B642",
"Y+	c #DFAE3C",
"Z+	c #B49131",
"`+	c #A17A2C",
" @	c #F0B541",
".@	c #BE612E",
"+@	c #E8B23F",
"@@	c #E4B03E",
"#@	c #BA9433",
"$@	c #B37E2F",
"%@	c #B1632C",
"&@	c #B36E2E",
"*@	c #A17D2C",
"=@	c #F5D07F",
"-@	c #F5CF7F",
";@	c #F4CF7F",
">@	c #DCAD3C",
",@	c #C1622F",
"'@	c #D9AC3B",
")@	c #ECB340",
"!@	c #C39735",
"~@	c #A3842D",
"{@	c #A9772D",
"]@	c #B3612C",
"^@	c #B36D2E",
"/@	c #B19031",
"(@	c #AF8E30",
"_@	c #B29031",
":@	c #F7D789",
"<@	c #F7D689",
"[@	c #F9B843",
"}@	c #EFB440",
"|@	c #DDAD3C",
"1@	c #B28D31",
"2@	c #B38A30",
"3@	c #AC872F",
"4@	c #A5862E",
"5@	c #B28F31",
"6@	c #9F792B",
"7@	c #9F7A2B",
"8@	c #F7D78A",
"9@	c #A16A2A",
"0@	c #AB672B",
"a@	c #A65228",
"b@	c #F8D78A",
"c@	c #F7D788",
"d@	c #A16B2A",
"e@	c #A55128",
"f@	c #AA682B",
"g@	c #B48E31",
"h@	c #B38F31",
"i@	c #B18930",
"j@	c #A75629",
"k@	c #F7CE81",
"l@	c #F6CD81",
"m@	c #A16D2A",
"n@	c #A45A29",
"o@	c #F8CE82",
"p@	c #F7CD81",
"q@	c #FAD589",
"r@	c #FAD588",
"s@	c #F6CD80",
"t@	c #F6CD7F",
"u@	c #A36029",
"v@	c #A0732B",
"w@	c #A45728",
"x@	c #F8D080",
"y@	c #F7C87A",
"z@	c #F7C97B",
"A@	c #F6C879",
"B@	c #F7C87B",
"C@	c #F8C97B",
"D@	c #F7C879",
"E@	c #FBD085",
"F@	c #BE662F",
"G@	c #CB9436",
"H@	c #B79432",
"I@	c #A55428",
"J@	c #F8D07F",
"K@	c #F6C878",
"L@	c #F7CB85",
"M@	c #F7CB86",
"N@	c #F7C578",
"O@	c #F7C679",
"P@	c #F6C578",
"Q@	c #E7B56C",
"R@	c #E8B56C",
"S@	c #E8B56B",
"T@	c #F8CB87",
"U@	c #F7C678",
"V@	c #E8B66D",
"W@	c #A6732C",
"X@	c #FAD182",
"Y@	c #F6CB85",
"Z@	c #F6CA85",
"`@	c #EAB874",
" #	c #FAD282",
".#	c #F8C578",
"+#	c #F8C579",
"@#	c #F3C27C",
"##	c #F2C27B",
"$#	c #F0C280",
"%#	c #F9CA7C",
"&#	c #F8CA7C",
"*#	c #F8C77A",
"=#	c #F8C779",
"-#	c #ECBB6F",
";#	c #ECBA6F",
">#	c #F3C27B",
",#	c #F3C37B",
"'#	c #F2C37B",
")#	c #F0C380",
"!#	c #F8C87A",
"~#	c #F9C87B",
"{#	c #EDBB6F",
"]#	c #EDBC6F",
"^#	c #DBA86D",
"/#	c #DCA86E",
"(#	c #DBA76D",
"_#	c #DDAB70",
":#	c #DEAC71",
"<#	c #DDAB6A",
"[#	c #DDAC6A",
"}#	c #DCAB69",
"|#	c #EFC47F",
"1#	c #EDC47E",
"2#	c #FADA8E",
"3#	c #FADA8D",
"4#	c #FAD98D",
"5#	c #F7D286",
"6#	c #F8D287",
"7#	c #F8D286",
"8#	c #F9CD7F",
"9#	c #F9CE7F",
"0#	c #F9CD7E",
"a#	c #F8C97E",
"b#	c #F9C97F",
"c#	c #F7C87D",
"d#	c #F3C175",
"e#	c #F3C275",
"f#	c #F2C175",
"g#	c #F4CA80",
"h#	c #F5CB81",
"i#	c #F3CA7F",
"j#	c #FCDB8F",
"k#	c #FCDC8F",
"l#	c #FCDB8E",
"m#	c #F2C17B",
"n#	c #F1C17B",
"o#	c #F0C180",
"p#	c #DBA76C",
"q#	c #DAA76B",
"r#	c #DDAB6F",
"s#	c #DCAA6E",
"t#	c #DBAA6B",
"u#	c #DBAB6A",
"v#	c #DBAA6A",
"w#	c #EEC47E",
"x#	c #EEC47F",
"y#	c #FAD98E",
"z#	c #F7D285",
"A#	c #F9CC7E",
"B#	c #F8C97D",
"C#	c #F7C87C",
"D#	c #F2C174",
"E#	c #F2C074",
"F#	c #F3CA80",
"G#	c #F2CA7F",
"H#	c #FBDB8F",
"I#	c #FBDA8F",
"J#	c #F8C97C",
"K#	c #F8C879",
"L#	c #F7C778",
"M#	c #ECBB6E",
"N#	c #ECBB6D",
"O#	c #ECBA6E",
"P#	c #DDAC6B",
"Q#	c #DCAB6A",
"R#	c #E5B875",
"S#	c #E4B875",
"T#	c #ECBF77",
"U#	c #ECBE77",
"V#	c #EDC178",
"W#	c #EDC177",
"X#	c #EEC279",
"Y#	c #EFC379",
"Z#	c #EDC278",
"`#	c #F9D88F",
" $	c #F9D890",
".$	c #F8D78E",
"+$	c #F9D388",
"@$	c #F9D387",
"#$	c #F7CC7E",
"$$	c #F7CD7E",
"%$	c #F7CB7D",
"&$	c #FBCC7E",
"*$	c #FBCD7F",
"=$	c #FACC7E",
"-$	c #EFBE71",
";$	c #EFBE72",
">$	c #EEBE72",
",$	c #E4B16A",
"'$	c #E4B26A",
")$	c #E3B169",
"!$	c #E9BD74",
"~$	c #E9BE74",
"{$	c #E8BD74",
"]$	c #F5CE83",
"^$	c #F4CE83",
"/$	c #F4CE82",
"($	c #F3C376",
"_$	c #F3C375",
":$	c #F8CA76",
"<$	c #F8CA75",
"[$	c #F9CA76",
"}$	c #FACA76",
"|$	c #F9C975",
"1$	c #DEAC6B",
"2$	c #DEAD6B",
"3$	c #DCAB6B",
"4$	c #E6B976",
"5$	c #E5B975",
"6$	c #ECC077",
"7$	c #EFC37A",
"8$	c #EDC279",
"9$	c #F9D990",
"0$	c #F8D88E",
"a$	c #F9D489",
"b$	c #FAD489",
"c$	c #F8CC7E",
"d$	c #F8CD7E",
"e$	c #F7CC7D",
"f$	c #FCCD7F",
"g$	c #EFBF71",
"h$	c #F0BF72",
"i$	c #E4B26B",
"j$	c #E3B16A",
"k$	c #EABE75",
"l$	c #F5CE84",
"m$	c #F5CF84",
"n$	c #F5CE82",
"o$	c #F4C376",
"p$	c #F4C375",
"q$	c #F9CB76",
"r$	c #FACA75",
"s$	c #DCAC6B",
"t$	c #DDAC6C",
"u$	c #DDAD6C",
"v$	c #E5B976",
"w$	c #E5B974",
"x$	c #ECBF78",
"y$	c #ECBF76",
"z$	c #EEC178",
"A$	c #EEC379",
"B$	c #EEC378",
"C$	c #FAD88E",
"D$	c #FAD88F",
"E$	c #F9D88D",
"F$	c #FAD488",
"G$	c #FBD489",
"H$	c #FAD387",
"I$	c #F8CB7D",
"J$	c #FBCC7F",
"K$	c #EFBF72",
"L$	c #E5B16A",
"M$	c #EABE74",
"N$	c #F6CE83",
"O$	c #F6CF83",
"P$	c #F5C375",
"Q$	c #F8CA77",
"R$	c #F8CB77",
"S$	c #FACA77",
"T$	c #FBCA78",
"  . . + @ # # @ $ % % % % % % $ & & & * & & & = - ; ; > , ' ' ) ! ~ ~ { ] ^ ^ / ( ( ( _ : < < [ } } } | 1 2 2 3 4 5 5 6 7 8 8 7 ",
"+ . . + 9 0 0 9 $ % % % % % % a & & & * b & & = c ; ; d e ' ' ) { ~ ~ f / g g h ( i i j : < < : k } } l m n n o 4 5 5 6 7 8 8 7 ",
"+ . . + 9 0 0 9 $ % % % % % % a & & & * b & & = c ; ; d e ' ' ) { ~ ~ f / g g h ( i i j : < < : k } } l m n n o 4 5 5 6 7 8 8 7 ",
"  p p + @ 0 0 q r a a r $ $ $ s t t t u v w w w x x x y ) z z z f A A A B B B C D E E D : : : F G H H G I o o _ J J J K L L L L ",
"M N N O P Q Q R S S S T U U U U U U U U U U U U U U U U U U U U U U U U U U U U U U U U U U U U U U U U U U U U U U V V W C C X ",
"Y Z Z ` Q  . .R S S S U ......+.@.@.#.$.$.%.@.@.&.....*.$.$.=.....-.@.@.;.....>.,.,.,.,.,.,.,.,.,.,.,.,.,.,.,.,.,.,.U '.W h h X ",
"Y Z Z ` Q  . .R S S S U ......+.@.@.#.$.$.%.@.@.&.....*.$.$.=.....-.@.@.;.....>.,.,.,.,.,.,.,.,.,.,.,.,.,.,.,.,.,.,.U '.W h h X ",
"O ` ` O R P P ).q U U U ......+.@.@.#.$.$.%.@.@.&.....*.$.$.=.....-.@.@.;.....>.,.,.,.,.,.,.,.,.,.,.,.,.,.,.,.,.,.,.U U U !.!.X ",
"~.{.{.~.].S S ^.U ......@.@.@./.$.$.(.@.@._.....:.$.$.<.....[.@.@.}.....|.,.,.,.,.,.,.,.,.,.,.,.,.,.,.,.,.,.,.,.,.,.,.,.,.U 1.1.",
"~.{.{.2.].S S 3.U ......@.@.@./.$.$.(.@.@._.....:.$.$.<.....[.@.@.}.....|.,.,.,.,.,.,.,.,.,.,.,.,.,.,.,.,.,.,.,.,.,.,.,.,.U 4.1.",
"~.{.{.2.].S U U U ......@.@.@./.$.$.(.@.@._.....:.$.$.<.....[.@.@.}.....|.,.,.,.,.,.,.,.,.,.,.,.,.,.,.,.,.,.,.,.,.,.,.,.,.U U 1.",
"2.2.2.5.T U ......@.@.@.$.$.$.6.@.@.7.....8.$.$.9.....}.@.@.[.....0.,.,.,.,.,.,.,.,.,.,.,.a.$.$.b.,.,.,.$.$.$.,.,.,.,.,.,.,.,.U ",
"c.d.d.e.P U ......@.@.@.$.$.$.6.@.@.7.....8.$.$.9.....}.@.@.[.....0.,.,.,.,.,.,.,.,.,.,.,.a.$.$.b.,.,.,.$.$.$.,.,.,.,.,.,.,.,.U ",
"c.f.f.e.Q U ......@.@.@.$.$.$.6.@.@.7.....8.$.$.9.....}.@.@.[.....0.,.,.,.,.,.,.,.,.,.,.,.a.$.$.b.,.,.,.$.$.$.,.,.,.,.,.,.,.,.U ",
"c.f.f.e.Q U @.@.@.......$.$.$.g.....h.@.@.i.$.$.j.@.@.-.....[.@.@.k.,.,.,.,.,.,.,.,.l.$.$.$.$.$.$.$.$.$.,.,.,.,.,.,.,.,.,.,.,.U ",
"m.n.n.o.R U @.@.@.......$.$.$.g.....h.@.@.i.$.$.j.@.@.-.....[.@.@.k.,.,.,.,.,.,.,.,.l.$.$.$.$.$.$.$.$.$.,.,.,.,.,.,.,.,.,.,.,.U ",
"p.p.p.U U U @.@.@.......$.$.$.g.....h.@.@.i.$.$.j.@.@.-.....[.@.@.k.,.,.,.,.,.,.,.,.l.$.$.$.$.$.$.$.$.$.,.,.,.,.,.,.,.,.,.,.,.U ",
"q.& U r.r.r.s.s.s.t.t.t.g.g.g.u.v.v.w././.x.y.y.z.s.s.A.v.v.B.C.C.D.,.,.E.F.F.G.H.H.I.a.a.a.a.a.a.a.a.a.,.,.,.,.,.,.F.F.F.,.,.U ",
"q.& U J.J.J.......$.$.$.......v.J.J.K.$.$.L.J.J.M.....N.J.J.O.,.,.,.,.,.P.Q.Q.R.$.$.S.,.,.,.,.,.,.,.,.,.,.,.,.,.,.,.Q.Q.Q.,.,.U ",
"v T.U J.J.J.......$.$.$.......v.J.J.K.$.$.L.J.J.M.....N.J.J.O.,.,.,.,.,.P.Q.Q.R.$.$.S.,.,.,.,.,.,.,.,.,.,.,.,.,.,.,.Q.Q.Q.,.,.U ",
"U.V.U W.W.W.X.X.X.$.$.$.X.X.X.Y.W.W.Z.$.$.`.W.W. +X.X..+W.W.++,.,.@+#+#+$+%+%+&+l.l.*+,.,.=+S.S.S.S.S.S.,.,.,.S.S.S.-+-+-+#+#+U ",
";+>+U ......J.J.J.$.$.$.J.J.J.,+....'+$.$.)+....!+J.J.~+....{+,.,.]+Q.Q.^+$.$.I.,.,.,.,.,.a.$.$.$.$.$.$.,.,.,.$.$.$.,.,.,.Q.Q.U ",
";+>+U ......J.J.J.$.$.$.J.J.J.,+....'+$.$.)+....!+J.J.~+....{+,.,.]+Q.Q.^+$.$.I.,.,.,.,.,.a.$.$.$.$.$.$.,.,.,.$.$.$.,.,.,.Q.Q.U ",
"/+(+U !+!+!+J.J.J.$.$.$.J.J.J._+!+!+:+$.$.<+!+!+[+J.J.}+!+!+|+1+1+2+3+3+4+5+5+6+7+7+7+7+7+8+5+5+5+5+5+5+1+1+1+$.$.$.9+9+9+3+3+U ",
"0+0+U J.J.J.J.J.J.$.$.$.J.J.J.J.J.J.K.$.$.L.J.J.J.J.J.J.J.J.a+Q.Q.b+,.,.,.,.,.c+$.$.$.$.$.H.,.,.,.,.,.,.Q.Q.Q.$.$.$.d+d+d+,.,.U ",
"e+U U J.J.J.J.J.J.$.$.$.J.J.J.J.J.J.K.$.$.L.J.J.J.J.J.J.J.J.a+Q.Q.b+,.,.,.,.,.c+$.$.$.$.$.H.,.,.,.,.,.,.Q.Q.Q.$.$.$.d+d+d+,.,.U ",
"U r.r.J.J.J.f+f+f+g+g+g+J.J.J.h+f+f+i+g+g+j+J.J.J.J.J.k+l+l+m+Q.Q.b+,.,.c+n+n+o+p+p+p+p+p+q+,.,.r+s+s+s+P.P.P.$.$.$.t+t+t+s+s+U ",
"U J.J.J.J.J.$.$.$.J.J.J.J.J.J.u+$.$.v+J.J.J.J.J.J.J.J.w+,.,.x+Q.Q.b+,.,.p+$.$.I.,.,.,.,.,.,.,.,.y+Q.Q.Q.,.,.,.$.$.$.,.,.,.Q.Q.U ",
"U J.J.J.J.J.$.$.$.J.J.J.J.J.J.u+$.$.v+J.J.J.J.J.J.J.J.w+,.,.x+Q.Q.b+,.,.p+$.$.I.,.,.,.,.,.,.,.,.y+Q.Q.Q.,.,.,.$.$.$.,.,.,.Q.Q.U ",
"U J.J.J.J.J.$.$.$.J.J.J.J.J.J.u+$.$.v+J.J.J.J.J.J.J.J.z+x+x+x+x+x+x+x+x+A+B+B+p+,.,.,.,.,.C+B+B+D+x+x+x+x+x+x+B+B+B+E+E+E+x+x+U ",
"U J.J.J.J.J.$.$.$.J.J.J.J.J.J.u+$.$.v+J.J.J.J.J.J.J.J.F+Q.Q.x+,.,.]+Q.Q.s+,.,.,.,.,.,.,.,.a.$.$.b.,.,.,.Q.Q.Q.,.,.,.d+d+d+,.,.U ",
"U J.J.J.J.J.$.$.$.J.J.J.J.J.J.u+$.$.v+J.J.J.J.J.J.J.J.F+Q.Q.x+,.,.]+Q.Q.s+,.,.,.,.,.,.,.,.a.$.$.b.,.,.,.Q.Q.Q.,.,.,.d+d+d+,.,.U ",
"U G+G+J.J.J.$.$.$.J.J.J.G+G+G+H+$.$.I+G+G+J+J.J.K+G+G+L+Q.Q.x+,.,.M+N+N+O+,.,.,.,.,.y+]+]+P+$.$.Q+R+R+R+b+b+b+S+S+S+T+T+T+]+]+U ",
"U U+U+J.J.J.$.$.$.J.J.J.U+U+U+V+$.$.W+U+U+X+J.J.Y+U+U+Z+Q.Q.x+,.,.R+$.$.n+,.,.,.,.,.-+Q.Q.`+$.$.$.$.$.$.,.,.,.d+d+d+,.,.,.Q.Q.U ",
"U U+U+J.J.J.$.$.$.J.J.J.U+U+U+V+$.$.W+U+U+X+J.J.Y+U+U+Z+Q.Q.x+,.,.R+$.$.n+,.,.,.,.,.-+Q.Q.`+$.$.$.$.$.$.,.,.,.d+d+d+,.,.,.Q.Q.U ",
"U Y+Y+ @ @ @$.$.$. @ @ @Y+Y+Y+.@$.$.W+U+U++@ @ @@@Y+Y+#@Q.Q.x+,.,.$@%@%@&@5+5+c+,.,.-+Q.Q.*@7+7+7+7+7+7+3+3+3+9+9+9+3+3+3+U U U ",
"U J.J.U+U+U+$.$.$.U+U+U+J.J.J.u+$.$.W+U+U+U+U+U+ @J.J.F+Q.Q.x+,.,.]+Q.Q.^+$.$.I.,.,.-+Q.Q.F.,.,.,.,.,.,.Q.Q.Q.,.,.,.Q.Q.Q.U =@-@",
"U J.J.U+U+U+$.$.$.U+U+U+J.J.J.u+$.$.W+U+U+U+U+U+ @J.J.F+Q.Q.x+,.,.]+Q.Q.^+$.$.I.,.,.-+Q.Q.F.,.,.,.,.,.,.Q.Q.Q.,.,.,.Q.Q.Q.U =@;@",
"U X+X+>@>@>@$.$.$.>@>@>@X+X+X+,@$.$.W+U+U+'@>@>@)@X+X+!@Q.Q.x+,.,.E.~@~@{@]@]@^@,.,./@~@~@1+(@(@(@(@(@(@~@~@~@(@(@(@~@~@~@U =@;@",
"U U+U+J.J.J.$.$.$.J.J.J.U+U+U+V+$.$.W+U+U+X+J.J.Y+U+U+Z+Q.Q.x+,.,.,.,.,.P.Q.Q.~@,.,.,.,.,._@Q.Q.Q.Q.Q.Q.,.,.,.Q.Q.Q.,.,.,.U =@-@",
"U U+U+J.J.J.$.$.$.J.J.J.U+U+U+V+$.$.W+U+U+X+J.J.Y+U+U+Z+Q.Q.x+,.,.,.,.,.P.Q.Q.~@,.,.,.,.,._@Q.Q.Q.Q.Q.Q.,.,.,.Q.Q.Q.,.,.,.U :@<@",
"U U+U+[@[@[@$.$.$.[@[@[@U+U+U+V+$.$.W+U+U+}@[@[@|@U+U+Z+Q.Q.b+_@_@1@2@2@3@F.F.4@,.,.,.,.,.5@6@6@7@F.F.F.2@2@2@Q.Q.Q._@_@_@U 8@:@",
"U U+U+U+U+U+$.$.$.U+U+U+U+U+U+V+$.$.W+U+U+U+U+U+U+U+U+Z+Q.Q.Q.Q.Q.9@d+d+0@,.,.,.,.,.,.,.,.2@d+d+a@,.,.,.d+d+d+Q.Q.Q.Q.Q.Q.U 8@:@",
"U U+U+U+U+U+$.$.$.U+U+U+U+U+U+V+$.$.W+U+U+U+U+U+U+U+U+Z+Q.Q.Q.Q.Q.9@d+d+0@,.,.,.,.,.,.,.,.2@d+d+a@,.,.,.d+d+d+Q.Q.Q.Q.Q.Q.U b@c@",
"U U+U+U+U+U+$.$.$.U+U+U+U+U+U+V+$.$.W+U+U+U+U+U+U+U+U+Z+Q.Q.Q.Q.Q.d@e@e@f@g@g@h@y+y+y+y+y+i@a@a@j@g@g@g@e@e@e@Q.Q.Q.Q.Q.Q.U k@l@",
"U U+U+U+U+U+$.$.$.U+U+U+U+U+U+V+$.$.W+U+U+U+U+U+U+U+U+Z+Q.Q.Q.Q.Q.Q.Q.Q.m@d+d+n@Q.Q.Q.Q.Q.F.,.,.g@d+d+d+Q.Q.Q.Q.Q.Q.U U U o@o@p@",
"U U+U+U+U+U+$.$.$.U+U+U+U+U+U+V+$.$.W+U+U+U+U+U+U+U+U+Z+Q.Q.Q.Q.Q.Q.Q.Q.m@d+d+n@Q.Q.Q.Q.Q.F.,.,.g@d+d+d+Q.Q.Q.Q.Q.Q.U q@p@o@o@p@",
"U U+U+U+U+U+$.$.$.U+U+U+U+U+U+V+$.$.W+U+U+U+U+U+U+U+U+Z+Q.Q.Q.Q.Q.Q.Q.Q.m@d+d+n@Q.Q.Q.Q.Q.F.,.,.g@d+d+d+Q.Q.Q.Q.Q.Q.U r@s@s@s@t@",
"U U+U+U+U+U+$.$.$.U+U+U+U+U+U+V+$.$.W+U+U+U+U+U+U+U+U+Z+Q.Q.Q.Q.Q.9@d+d+u@Q.Q.v@d+d+w@Q.Q.6@d+d+e@Q.Q.Q.Q.Q.Q.Q.Q.Q.U x@y@z@z@A@",
"U U+U+U+U+U+$.$.$.U+U+U+U+U+U+V+$.$.W+U+U+U+U+U+U+U+U+Z+Q.Q.Q.Q.Q.9@d+d+u@Q.Q.v@d+d+w@Q.Q.6@d+d+e@Q.Q.Q.Q.Q.Q.Q.Q.Q.U x@B@C@C@D@",
"U U+U+U+U+U+$.$.$.U+U+U+U+U+U+V+$.$.W+U+U+U+U+U+U+U+U+Z+Q.Q.Q.Q.Q.9@d+d+u@Q.Q.v@d+d+w@Q.Q.6@d+d+e@Q.Q.Q.Q.Q.Q.Q.Q.Q.U x@B@C@C@D@",
"E@U U U+U+U+U+U+U+$.$.$.U+U+U+U+U+U+F@$.$.G@U+U+U+U+U+U+U+U+H@Q.Q.Q.Q.Q.m@d+d+d+d+d+d+d+d+I@Q.Q.Q.Q.Q.Q.Q.Q.Q.U U U x@J@A@A@A@K@",
"L@M@U U+U+U+U+U+U+$.$.$.U+U+U+U+U+U+F@$.$.G@U+U+U+U+U+U+U+U+H@Q.Q.Q.Q.Q.m@d+d+d+d+d+d+d+d+I@Q.Q.Q.Q.Q.Q.Q.Q.Q.U N@O@O@P@Q@R@R@S@",
"M@T@U U+U+U+U+U+U+$.$.$.U+U+U+U+U+U+F@$.$.G@U+U+U+U+U+U+U+U+H@Q.Q.Q.Q.Q.m@d+d+d+d+d+d+d+d+I@Q.Q.Q.Q.Q.Q.Q.Q.Q.U N@O@O@U@Q@V@V@R@",
"M@T@T@U U U Q.Q.Q.Q.Q.Q.$.$.$.`+Q.Q.Q.Q.Q.]@$.$.W@Q.Q.Q.Q.Q.Q.Q.Q.Q.Q.Q.Q.Q.Q.Q.Q.Q.Q.Q.Q.Q.Q.Q.Q.Q.Q.Q.U U U X@N@O@O@U@Q@V@V@R@",
"Y@L@L@Z@`@U Q.Q.Q.Q.Q.Q.$.$.$.`+Q.Q.Q.Q.Q.]@$.$.W@Q.Q.Q.Q.Q.Q.Q.Q.Q.Q.Q.Q.Q.Q.Q.Q.Q.Q.Q.Q.Q.Q.Q.Q.Q.Q.Q.U  # #X@.#+#+#.#S@S@S@R@",
"@#######$#U Q.Q.Q.Q.Q.Q.$.$.$.`+Q.Q.Q.Q.Q.]@$.$.W@Q.Q.Q.Q.Q.Q.Q.Q.Q.Q.Q.Q.Q.Q.Q.Q.Q.Q.Q.Q.Q.Q.Q.Q.Q.Q.Q.U %#%#&#*#*#*#=#-#-#-#;#",
">#,#,#'#$#)#U U U U U U U U U U U U U U U U U U U U U U U U U U U U U U U U U U U U U U U U U U U U U U &#%#%#&#!#~#~#=#{#]#]#-#",
">#,#,#'#$#)#)#$#^#/#/#(#_#:#:#_#<#[#[#}#|#|#|#1#2#3#3#4#5#6#6#7#8#9#9#0#a#b#b#c#d#e#e#f#g#h#h#i#j#k#k#l#&#%#%#&#!#~#~#=#{#]#]#-#",
"m#####n#o#$#$#o#p#p#p#q#r#r#r#s#t#u#u#v#w#x#x#1#y#2#2#4#5#5#5#z#8#8#8#A#c#B#B#C#D#D#D#E#F#F#F#G#H#H#H#I#J#&#&#J#K#!#!#L#M#N#N#O#",
"P#[#[#Q#R#R#R#S#T#T#T#U#V#W#W#W#X#Y#Y#Z#`# $ $.$+$+$+$@$#$$$$$%$&$*$*$=$-$;$;$>$,$'$'$)$!$~$~${$]$^$^$/$($($($_$:$:$:$<$[$}$}$|$",
"1$2$2$3$R#4$4$5$T#6$6$U#V#V#V#V#X#7$7$8$`#9$9$0$a$b$b$@$c$d$d$e$&$f$f$=$g$h$h$>$,$i$i$j$!$k$k$~$l$m$m$n$o$o$o$p$:$q$q$<$[$}$}$r$",
"1$2$2$3$R#4$4$5$T#6$6$U#V#V#V#V#X#7$7$8$`#9$9$0$a$b$b$@$c$d$d$e$&$f$f$=$g$h$h$>$,$i$i$j$!$k$k$~$l$m$m$n$o$o$o$p$:$q$q$<$[$}$}$r$",
"s$t$u$P#R#v$v$w$x$T#T#y$z$z$z$V#A$7$7$B$C$D$D$E$F$G$G$H$8#0#0#I$J$*$*$J$K$h$h$-$L$,$,$,$M$M$M$~$N$O$O$n$o$P$P$p$Q$R$R$:$S$T$T$[$"};
