/* XPM */
static char * rc_xpm[] = {
"64 64 646 2",
"  	c #FCE099",
". 	c #FEE098",
"+ 	c #FDE099",
"@ 	c #F9D790",
"# 	c #FAD891",
"$ 	c #FAD48E",
"% 	c #FBD48F",
"& 	c #FCD791",
"* 	c #FCD790",
"= 	c #FBD791",
"- 	c #FBDB9A",
"; 	c #FBDC9B",
"> 	c #FBDC9A",
", 	c #FADD9B",
"' 	c #F9DE9B",
") 	c #F9DD9A",
"! 	c #FBD88D",
"~ 	c #FCD88C",
"{ 	c #FBD78C",
"] 	c #FACC84",
"^ 	c #FACD84",
"/ 	c #F9CC83",
"( 	c #EDC07B",
"_ 	c #EEC07B",
": 	c #F1C57D",
"< 	c #F2C67D",
"[ 	c #F1C67D",
"} 	c #FBCF86",
"| 	c #FACE85",
"1 	c #F0C27D",
"2 	c #F0C27E",
"3 	c #EFC27D",
"4 	c #E9B975",
"5 	c #EAB976",
"6 	c #E9B874",
"7 	c #F4C47C",
"8 	c #F5C57D",
"9 	c #F8D790",
"0 	c #F9D891",
"a 	c #FAD38E",
"b 	c #FCD692",
"c 	c #FADB9A",
"d 	c #000000",
"e 	c #FAD78C",
"f 	c #F9CD84",
"g 	c #F8CC83",
"h 	c #EDC07C",
"i 	c #EDBF7B",
"j 	c #FBCF85",
"k 	c #F9CE85",
"l 	c #EFC17D",
"m 	c #EFC27E",
"n 	c #EEC17D",
"o 	c #4F2D1B",
"p 	c #FDE098",
"q 	c #F8D68F",
"r 	c #F9D38E",
"s 	c #F9D38D",
"t 	c #FBD790",
"u 	c #FAD690",
"v 	c #FAD691",
"w 	c #F9D691",
"x 	c #FAD78B",
"y 	c #F9CB82",
"z 	c #F8CB82",
"A 	c #ECBF7A",
"B 	c #ECC07A",
"C 	c #F0C57D",
"D 	c #F9CE84",
"E 	c #FACF85",
"F 	c #EEC17C",
"G 	c #E8B874",
"H 	c #E8B873",
"I 	c #F3C47C",
"J 	c #FDDD9A",
"K 	c #FEDE9A",
"L 	c #FDDD99",
"M 	c #FCD690",
"N 	c #FCD691",
"O 	c #FBD590",
"P 	c #F7D68F",
"Q 	c #F7D68E",
"R 	c #FCD591",
"S 	c #FCD590",
"T 	c #FBDF9C",
"U 	c #FADF9B",
"V 	c #FAE19E",
"W 	c #A13F01",
"X 	c #F0C37F",
"Y 	c #EFC37F",
"Z 	c #F0C37B",
"` 	c #EFC37B",
" .	c #EFC37A",
"..	c #FDD186",
"+.	c #FCD185",
"@.	c #FBD081",
"#.	c #FACF80",
"$.	c #ECBC78",
"%.	c #ECBC77",
"&.	c #F1C37B",
"*.	c #F7CB82",
"=.	c #F7CA81",
"-.	c #FEDD9A",
";.	c #FFDE9B",
">.	c #FEDD99",
",.	c #FDD691",
"'.	c #FBD591",
").	c #FBE09D",
"!.	c #FAE19F",
"~.	c #F0C380",
"{.	c #F0C47B",
"].	c #FED287",
"^.	c #EDBC79",
"/.	c #F1C47B",
"(.	c #2B180B",
"_.	c #FBD58F",
":.	c #F7D58F",
"<.	c #FBD690",
"[.	c #FAD591",
"}.	c #FADE9B",
"|.	c #F9E19F",
"1.	c #F0C37A",
"2.	c #EFC27A",
"3.	c #FDD185",
"4.	c #FDD184",
"5.	c #FBCE80",
"6.	c #FBCF81",
"7.	c #EBBB76",
"8.	c #ECBB77",
"9.	c #F1C37A",
"0.	c #F0C47A",
"a.	c #F7CB81",
"b.	c #FCDC96",
"c.	c #FDDC95",
"d.	c #F7D58E",
"e.	c #F6D68E",
"f.	c #F9E09F",
"g.	c #F9E1A0",
"h.	c #F9E0A0",
"i.	c #FBDFA0",
"j.	c #FBDF9F",
"k.	c #FAD996",
"l.	c #FAD895",
"m.	c #853201",
"n.	c #EFBF7D",
"o.	c #EEBE7C",
"p.	c #FCCF87",
"q.	c #FCD087",
"r.	c #F6C980",
"s.	c #F6CA81",
"t.	c #F5C980",
"u.	c #F4C47F",
"v.	c #F4C480",
"w.	c #F3C37F",
"x.	c #F2C278",
"y.	c #F3C379",
"z.	c #F6CA7E",
"A.	c #F6CA7F",
"B.	c #F5CA7E",
"C.	c #FACF81",
"D.	c #FCDC95",
"E.	c #F5D68E",
"F.	c #FAE1A0",
"G.	c #FAE1A1",
"H.	c #F9E0A1",
"I.	c #FCDFA1",
"J.	c #FCE0A1",
"K.	c #F0BF7D",
"L.	c #EFBE7C",
"M.	c #FCD088",
"N.	c #FBD086",
"O.	c #F5C481",
"P.	c #F4C37F",
"Q.	c #F2C378",
"R.	c #FAEE4D",
"S.	c #FBDC95",
"T.	c #FCDE9F",
"U.	c #FCDEA0",
"V.	c #FBDE9E",
"W.	c #FAD894",
"X.	c #F9D28D",
"Y.	c #EFBF7C",
"Z.	c #EEBE7B",
"`.	c #FBD087",
" +	c #F6C881",
".+	c #F5C880",
"++	c #F3C480",
"@+	c #F3C380",
"#+	c #F3C27E",
"$+	c #F6CA7D",
"%+	c #F9CE80",
"&+	c #FCD890",
"*+	c #FCD891",
"=+	c #FBD890",
"-+	c #F0C98A",
";+	c #F0C889",
">+	c #F7D08C",
",+	c #F7D18C",
"'+	c #FAD58E",
")+	c #FAD48D",
"!+	c #FAD187",
"~+	c #FDFDFD",
"{+	c #FCD086",
"]+	c #F4C87F",
"^+	c #E9BC76",
"/+	c #E8BC77",
"(+	c #E8BB76",
"_+	c #FBCC81",
":+	c #FCCC82",
"<+	c #FACB7E",
"[+	c #FECF80",
"}+	c #FECF81",
"|+	c #FDCF80",
"1+	c #FDD891",
"2+	c #F1C98A",
"3+	c #F1C98B",
"4+	c #F8D18C",
"5+	c #F7D08B",
"6+	c #FBD58E",
"7+	c #FBD187",
"8+	c #E9BC77",
"9+	c #E9BC78",
"0+	c #E8BB77",
"a+	c #FBCC82",
"b+	c #FCCC81",
"c+	c #FBCC7E",
"d+	c #FFD082",
"e+	c #FCD88F",
"f+	c #FDD890",
"g+	c #FBD88F",
"h+	c #EFC889",
"i+	c #F7D08D",
"j+	c #F8D18D",
"k+	c #FAD58C",
"l+	c #F5C780",
"m+	c #F5C87F",
"n+	c #F4C77F",
"o+	c #E9BB76",
"p+	c #EEC07C",
"q+	c #FBCC80",
"r+	c #F9CB7D",
"s+	c #FBCF7F",
"t+	c #FBD691",
"u+	c #F1CA85",
"v+	c #F1C984",
"w+	c #F1C482",
"x+	c #F1C582",
"y+	c #F0C482",
"z+	c #FCD58F",
"A+	c #FCD68F",
"B+	c #EFC078",
"C+	c #EFBF78",
"D+	c #EEBE78",
"E+	c #F6C480",
"F+	c #F6C481",
"G+	c #F5C480",
"H+	c #F9C980",
"I+	c #F7C87F",
"J+	c #FAD48C",
"K+	c #FAD58D",
"L+	c #F9D48C",
"M+	c #EEC57B",
"N+	c #EFC57A",
"O+	c #EEC47A",
"P+	c #FBD792",
"Q+	c #F2C582",
"R+	c #F7D18B",
"S+	c #FDD68F",
"T+	c #FDD790",
"U+	c #F0C078",
"V+	c #EFBF77",
"W+	c #F7C482",
"X+	c #F9C981",
"Y+	c #F7C880",
"Z+	c #FBD48D",
"`+	c #EFC57B",
" @	c #FAD590",
".@	c #F0C883",
"+@	c #F6D08B",
"@@	c #F6D18B",
"#@	c #F6D18A",
"$@	c #FCD58E",
"%@	c #EEBE76",
"&@	c #F6C380",
"*@	c #F6C381",
"=@	c #F5C380",
"-@	c #F8C880",
";@	c #EEC57C",
">@	c #ECC57B",
",@	c #F4C888",
"'@	c #F4C989",
")@	c #F2C988",
"!@	c #EFC283",
"~@	c #F0C283",
"{@	c #EFC282",
"]@	c #FAD28D",
"^@	c #F9D28C",
"/@	c #F4CA87",
"(@	c #F4CA86",
"_@	c #F4C986",
":@	c #EABC7D",
"<@	c #F6C981",
"[@	c #EAB875",
"}@	c #EBB876",
"|@	c #F5C57C",
"1@	c #F6C67C",
"2@	c #F5C57B",
"3@	c #F4CE8E",
"4@	c #F3CD8E",
"5@	c #DEB57B",
"6@	c #DFB67C",
"7@	c #DEB57A",
"8@	c #F4C889",
"9@	c #F5C98A",
"0@	c #F3C989",
"a@	c #F0C284",
"b@	c #FAD28E",
"c@	c #F5CA86",
"d@	c #F4CE8F",
"e@	c #F3CE8F",
"f@	c #DEB67B",
"g@	c #DFB77C",
"h@	c #DEB67A",
"i@	c #F3C888",
"j@	c #F3C988",
"k@	c #EAB975",
"l@	c #DFB57A",
"m@	c #DFB67A",
"n@	c #DFB579",
"o@	c #EEC17F",
"p@	c #EEC17E",
"q@	c #F8D08C",
"r@	c #F7CC8C",
"s@	c #F37D20",
"t@	c #F7C37E",
"u@	c #F6C47E",
"v@	c #C4C4C4",
"w@	c #E3B06F",
"x@	c #ECBA74",
"y@	c #ECBB73",
"z@	c #EBBA73",
"A@	c #EEC27F",
"B@	c #EFC27F",
"C@	c #F7C47E",
"D@	c #F7C57E",
"E@	c #EDBA74",
"F@	c #EDBB74",
"G@	c #0094CB",
"H@	c #FBF183",
"I@	c #F9EB30",
"J@	c #EDC17F",
"K@	c #F9D08D",
"L@	c #F9D18D",
"M@	c #F6CC86",
"N@	c #FCCE86",
"O@	c #EAB775",
"P@	c #E9B774",
"Q@	c #FCD892",
"R@	c #FBD892",
"S@	c #F1C07D",
"T@	c #F1C07C",
"U@	c #FACA82",
"V@	c #ADAEAE",
"W@	c #FCCD7D",
"X@	c #FBCC7C",
"Y@	c #FDD892",
"Z@	c #F5C885",
"`@	c #F8CB88",
" #	c #F6CA86",
".#	c #FAD48A",
"+#	c #F6C986",
"@#	c #FBD58A",
"##	c #D09465",
"$#	c #FBD891",
"%#	c #FBD68F",
"&#	c #F4C884",
"*#	c #F7CA87",
"=#	c #FBCD7C",
"-#	c #F9DE9A",
";#	c #F8DD9A",
">#	c #F9D895",
",#	c #F9CF86",
"'#	c #F8CF86",
")#	c #F7D086",
"!#	c #F6CF85",
"~#	c #F9D38B",
"{#	c #F9D38C",
"]#	c #50D0FF",
"^#	c #B87036",
"/#	c #F6CA7C",
"(#	c #F9D896",
"_#	c #FAD086",
":#	c #F9D086",
"<#	c #F7D186",
"[#	c #F7D085",
"}#	c #F6CB7C",
"|#	c #F9D48B",
"1#	c #F8CF85",
"2#	c #F6CF86",
"3#	c #F8D38B",
"4#	c #F9D890",
"5#	c #E7B572",
"6#	c #F4C681",
"7#	c #F3C781",
"8#	c #F3C681",
"9#	c #E2B472",
"0#	c #E3B573",
"a#	c #E3B473",
"b#	c #D6A266",
"c#	c #F8D892",
"d#	c #F8D891",
"e#	c #EFC37E",
"f#	c #EEC37D",
"g#	c #E76905",
"h#	c #F4C37D",
"i#	c #E5B472",
"j#	c #E5B572",
"k#	c #E4B471",
"l#	c #E8B673",
"m#	c #F3C17B",
"n#	c #F5D07F",
"o#	c #F5CF7F",
"p#	c #F9D892",
"q#	c #F8CE89",
"r#	c #F3C682",
"s#	c #FBD48E",
"t#	c #E6B573",
"u#	c #E9B673",
"v#	c #F4CF7F",
"w#	c #FBCFB4",
"x#	c #F9AF81",
"y#	c #F4C27B",
"z#	c #F7CE88",
"A#	c #F3C680",
"B#	c #E8B773",
"C#	c #E8B672",
"D#	c #F2C17A",
"E#	c #F2C179",
"F#	c #F8CB7C",
"G#	c #EFC381",
"H#	c #EFC380",
"I#	c #EDC07D",
"J#	c #F1C480",
"K#	c #F5CE84",
"L#	c #F4CE83",
"M#	c #FDDD90",
"N#	c #FCDD90",
"O#	c #F9CD81",
"P#	c #F7CD80",
"Q#	c #F7D788",
"R#	c #F7D789",
"S#	c #F7D689",
"T#	c #F0C381",
"U#	c #F5CF84",
"V#	c #FCD386",
"W#	c #FDD387",
"X#	c #FBD386",
"Y#	c #F9CD82",
"Z#	c #F8CE81",
"`#	c #F7D78A",
" $	c #FCDC90",
".$	c #FAD285",
"+$	c #F8D689",
"@$	c #F8D78A",
"#$	c #FAD087",
"$$	c #F8D88F",
"%$	c #F7D283",
"&$	c #FAD588",
"*$	c #FBD589",
"=$	c #FAD589",
"-$	c #F6CD81",
";$	c #F7CE81",
">$	c #F7CD81",
",$	c #F8CE82",
"'$	c #F8D385",
")$	c #F9D087",
"!$	c #F6CD80",
"~$	c #F6CD7F",
"{$	c #F8D487",
"]$	c #F8D488",
"^$	c #F7D487",
"/$	c #F9D080",
"($	c #F9D180",
"_$	c #F8D080",
":$	c #F7C87A",
"<$	c #F7C97B",
"[$	c #F6C879",
"}$	c #F8D283",
"|$	c #F8D588",
"1$	c #F9D589",
"2$	c #FAD181",
"3$	c #F7C87B",
"4$	c #F8C97B",
"5$	c #F7C879",
"6$	c #424242",
"7$	c #FBD085",
"8$	c #F8D284",
"9$	c #F7D386",
"0$	c #F8D07F",
"a$	c #F6C878",
"b$	c #F7CB85",
"c$	c #E4DDBC",
"d$	c #F8D287",
"e$	c #F7D287",
"f$	c #FAD282",
"g$	c #FAD182",
"h$	c #F7C578",
"i$	c #F7C679",
"j$	c #F6C578",
"k$	c #E7B56C",
"l$	c #E8B56C",
"m$	c #E8B56B",
"n$	c #F7CB86",
"o$	c #FBD282",
"p$	c #F7C678",
"q$	c #E8B66D",
"r$	c #F8D288",
"s$	c #F6CB85",
"t$	c #FACD7E",
"u$	c #F7D286",
"v$	c #F8C578",
"w$	c #F8C579",
"x$	c #F3C27C",
"y$	c #F2C27B",
"z$	c #792D01",
"A$	c #D3C994",
"B$	c #F78E4E",
"C$	c #F3CA7F",
"D$	c #FBDB8F",
"E$	c #FCDB8E",
"F$	c #FCDA8E",
"G$	c #F8CA7C",
"H$	c #F9CA7C",
"I$	c #F8C77A",
"J$	c #F8C779",
"K$	c #ECBB6F",
"L$	c #ECBA6F",
"M$	c #F3C27B",
"N$	c #F3C37B",
"O$	c #F8D286",
"P$	c #F9CD7F",
"Q$	c #F9CE7F",
"R$	c #F9CD7E",
"S$	c #F8C97E",
"T$	c #F9C97F",
"U$	c #FCDB8F",
"V$	c #FCDC8F",
"W$	c #F8C87A",
"X$	c #F9C87B",
"Y$	c #EDBB6F",
"Z$	c #EDBC6F",
"`$	c #EFC47F",
" %	c #F7C87D",
".%	c #F2C17B",
"+%	c #EEC47F",
"@%	c #F7D285",
"#%	c #F9CC7E",
"$%	c #F8C97D",
"%%	c #F7C87C",
"&%	c #F2C174",
"*%	c #F2CA7F",
"=%	c #FBDA8F",
"-%	c #F8C97C",
";%	c #F8C879",
">%	c #F7C778",
",%	c #ECBB6E",
"'%	c #ECBB6D",
")%	c #ECBA6E",
"!%	c #DDAC6B",
"~%	c #DDAC6A",
"{%	c #DCAB6A",
"]%	c #A69843",
"^%	c #C1B569",
"/%	c #F7CD7E",
"(%	c #F7CB7D",
"_%	c #FBCD7F",
":%	c #FACC7E",
"<%	c #EFBE71",
"[%	c #EFBE72",
"}%	c #EEBE72",
"|%	c #E4B16A",
"1%	c #E8BD74",
"2%	c #F5CE83",
"3%	c #F4CE82",
"4%	c #F3C376",
"5%	c #F3C375",
"6%	c #F8CA76",
"7%	c #F8CA75",
"8%	c #F9CA76",
"9%	c #FACA76",
"0%	c #F9C975",
"a%	c #DEAC6B",
"b%	c #DEAD6B",
"c%	c #DCAB6B",
"d%	c #E5B875",
"e%	c #E6B976",
"f%	c #E5B975",
"g%	c #ECBF77",
"h%	c #ECC077",
"i%	c #ECBE77",
"j%	c #EDC178",
"k%	c #F9D990",
"l%	c #F8CD7E",
"m%	c #F7CC7D",
"n%	c #FCCD7F",
"o%	c #EFBF71",
"p%	c #F0BF72",
"q%	c #E9BE74",
"r%	c #F5CE82",
"s%	c #F4C376",
"t%	c #F4C375",
"u%	c #F9CB76",
"v%	c #FACA75",
"w%	c #F9D88F",
"x%	c #F8D88E",
"y%	c #F8CC7E",
"z%	c #E4B26B",
"A%	c #EABE75",
"B%	c #DCAC6B",
"C%	c #DDAC6C",
"D%	c #DDAD6C",
"E%	c #E5B976",
"F%	c #E5B974",
"G%	c #ECBF78",
"H%	c #ECBF76",
"I%	c #EEC178",
"J%	c #EEC379",
"K%	c #EEC378",
"L%	c #FAD88E",
"M%	c #FAD88F",
"N%	c #F9D88D",
"O%	c #FAD488",
"P%	c #FBD489",
"Q%	c #FAD387",
"R%	c #F8CB7D",
"S%	c #FBCC7F",
"T%	c #EFBF72",
"U%	c #E5B16A",
"V%	c #EABE74",
"W%	c #F6CE83",
"X%	c #F6CF83",
"Y%	c #F5C375",
"Z%	c #F8CA77",
"`%	c #F8CB77",
" &	c #FACA77",
".&	c #FBCA78",
"  . . + @ # # @ $ % % % % % % $ & & & * & & & = - ; ; > , ' ' ) ! ~ ~ { ] ^ ^ / ( ( ( _ : < < [ } } } | 1 2 2 3 4 5 5 6 7 8 8 7 ",
"+ . . + 9 0 0 9 $ % % % % % % a & & & * b & & = c ; d d d d d d d d ~ e / f f g ( h h i : < < : j } } k l m m n 4 5 5 6 7 8 8 7 ",
"+ . . + 9 0 0 9 $ % % % % % % a & & & * b & & = c d o o o o o o o o d e / f f g ( h h i : < < : j } } k l m m n 4 5 5 6 7 8 8 7 ",
"  p p + @ 0 0 q r a a r $ $ $ s t t t u v w w w d d o o o o o o o o d x y y y z A B B A : : : C D E E D F n n _ G G G H I I I I ",
"J K K L M N N O P P P Q R S S O T T T U V V V d W W W W W W W W W W d k X X X Y Z ` `  .......+.@.@.@.#.$.$.$.%.&.Z Z Z *.z z =.",
"-.;.;.>.N ,.,.O P P P Q N ,.,.'.T ).).U !.V V d W W W W W W W W W W d d ~.~.~.Y Z {.{. ...].]...@.@.@.#.$.^.^.$./.{.{.{.*.g g =.",
"-.;.;.>.N ,.,.O P P P Q N ,.,.'.T ).).U !.V V d o o W W o o o o W W (.(.d ~.~.Y Z {.{. ...].]...@.@.@.#.$.^.^.$./.{.{.{.*.g g =.",
"L >.>.L O M M _.q P P :.'.<.<.[.}.U U }.!.|.|.d o o W W o o o o W W (.(.d ~.~.Y Z 1.1.2...3.3.4.5.6.6.5.7.8.8.7.9.0.0.0.a.a.a.=.",
"b.c.c.b.d.P P e.f.g.g.h.i.i.i.j.k.k.k.l.s s s d m.m.m.m.m.m.m.m.(.(.W W d n.n.o.p.q.q.} r.s.s.t.u.v.v.w.x.y.y.x.z.A.A.B.C.C.C.C.",
"b.c.c.D.d.P P E.F.G.G.H.I.J.J.j.k.k.k.l.s a a d m.m.m.m.m.m.m.m.(.(.W W d K.K.L.M.q.q.N.r.s.s.t.v.O.O.P.y.y.y.Q.A.A.A.z.C.@.@.C.",
"b.c.c.D.d.P P E.F.G.G.H.I.J.J.j.k.k.k.l.s a a d o o m.m.o o o o (.(.R.R.d K.K.L.M.q.q.N.r.s.s.t.v.O.O.P.y.y.y.Q.A.A.A.z.C.@.@.C.",
"D.D.D.S.Q Q Q d.f.f.f.f.T.U.U.V.l.W.W.W.X.X.X.d o o m.m.o o o o (.(.R.R.d Y.Y.Z.`.`.`.`. +t.t..+++@+@+#+y.y.y.Q.z.z.z.$+#.6.6.%+",
"&+*+*+=+M M M R -+-+-+;+>+,+,+>+$ '+'+)+!+!+!+d o o ~+~+~+~+o o o o m.m.d {+{+E .+]+]+]+^+/+/+(+h h h ( _+:+:+_+<+<+<+<+[+}+}+|+",
"&+1+1+=+N ,.,.R 2+3+3+;+4+4+4+5+6+6+6+)+!+7+d d o o ~+~+~+~+o o o o m.m.d d q.E .+t.t.]+8+9+9+0+h h h ( a+:+:+b+<+c+c+<+}+d+d+[+",
"&+1+1+=+N ,.,.R 2+3+3+;+4+4+4+5+6+6+6+)+!+d W W o o W W W W o o W W m.m.W W d E .+t.t.]+8+9+9+0+h h h ( a+:+:+b+<+c+c+<+}+d+d+[+",
"e+f+f+g+O O O O ;+;+;+h+i+j+j+>+'+'+'+k+d d W W o o W W W W o o W W m.m.W W d d l+m+m+n+o+o+o+(+p+p+p+( _+b+b+q+r+r+r+r+|+|+|+s+",
"t+t+t+u u+u+u+v+w+x+x+y+5+4+4+5+z+A+A+d W W m.m.o o o o o o o o m.m.m.m.m.m.W W d B+B+B+C+C+C+D+E+F+F+G+H+H+H+I+J+K+K+L+M+N+N+O+",
"P+& & <.u+u+u+v+x+Q+Q+w+5+4+4+R+S+T+d d W W m.m.o o o o o o o o m.m.m.m.m.m.W W d d U+U+U+U+U+V+F+W+W+F+X+X+X+Y+Z+6+6+J+M+`+`+M+",
"P+& & <.u+u+u+v+x+Q+Q+w+5+4+4+R+S+d W W W W W W m.m.m.m.m.m.m.m.W W W W W W W W W W d U+U+U+U+V+F+W+W+F+X+X+X+Y+Z+6+6+J+M+`+`+M+",
"v <.<. @v+v+v+.@x+x+x+y++@@@@@#@$@d W W W W W W m.m.m.m.m.m.m.m.W W W W W W W W W W d d %@%@%@%@&@*@*@=@H+H+H+-@J+J+J+L+;@M+M+>@",
",@'@'@)@!@~@~@{@]@]@]@^@/@(@(@_@:@d W W m.m.W W W W W W W W W W W W W W W W W W W W W W d <@<@<@[@}@}@[@|@1@1@2@3@3@3@4@5@6@6@7@",
"8@9@9@0@a@a@a@!@b@a d d d d c@(@d d W W m.m.W W W W W W W W W W W W W W W W W W W W W W d s.s.<@[@}@}@[@1@1@1@|@d@d@d@e@f@g@g@h@",
"8@9@9@0@a@a@a@!@b@d m.m.m.m.d d W W m.m.m.m.W W W W m.m.W W W W W W W W m.m.W W W W m.m.d s.s.<@[@}@}@[@1@1@1@|@d@d@d@e@f@g@g@h@",
"i@j@j@i@!@!@!@{@X.d m.m.m.m.d d W W m.m.m.m.W W W W m.m.W W W W W W W W m.m.W W W W m.m.d =.=.<@k@k@k@[@d d d d d d d@e@l@m@m@n@",
"o@o@o@p@q@4+4+>+r@d W W W W s@s@W W W W m.m.m.m.m.m.m.m.m.m.m.m.m.m.m.m.W W m.m.m.m.W W d [@[@6 t@u@u@d v@v@v@v@v@v@d w@x@y@y@z@",
"A@B@B@p@4+4+4+>+d d W W W W s@s@W W W W m.m.m.m.m.m.m.m.m.m.m.m.m.m.m.m.W W m.m.m.m.W W d }@}@[@C@D@d d v@v@v@v@v@v@d d E@F@F@x@",
"A@B@B@p@4+4+4+d s@s@W W W W G@G@s@s@W W d d W W W W m.m.W W W W W W W W W W d d W W W W d }@}@[@C@d H@H@I@I@H@H@I@I@H@H@d F@F@x@",
"o@o@o@J@K@L@L@d s@s@W W W W G@G@s@s@W W d M@W W W W m.m.W W W W W W W W W W N@d W W W W d O@O@P@t@d H@H@I@I@H@H@I@I@H@H@d z@z@z@",
"Q@Q@Q@R@S S S d s@s@d d d d d d d d s@s@d `.W W W W m.m.W W W W W W W W W W } d G@G@G@G@d S@S@T@U@d V@V@V@V@V@V@V@V@V@V@d W@W@X@",
"Q@Y@Y@R@M ,.d d s@s@d Z@`@`@`@ #.#d s@s@d q.W W W W m.m.W W W W W W W W W W } d G@G@G@G@d d d d d d V@V@V@V@V@V@V@V@V@V@d W@W@X@",
"Q@Y@Y@R@M d s@s@d d +#Z@`@`@`@ #.#@#d d s@s@W W W W W W W W W W W W W W W W ####m.m.m.m.m.m.########v@v@v@v@v@v@v@v@v@v@d W@W@X@",
"R@Q@Q@$#%#d s@s@d Z@Z@&#*#*#*# #.#.#.#d s@s@W W W W W W W W W W W W W W W W ####m.m.m.m.m.m.########v@v@v@v@v@v@v@v@v@v@d =#=#X@",
") -#-#;#>#d s@s@d ,#,#'#)#)#)#!#~#{#{#d s@s@]#]#]#]#]#]#]#]#]#]#]#]#]#]#]#]#^#^#W W W W W W ^#^#^#^#v@v@v@v@v@v@v@v@v@v@d /#/#/#",
"-#' ' ;#(#d s@s@d _#_#:#<#<#<#[#L+)+)+d s@s@]#]#]#]#]#]#]#]#]#]#]#]#]#]#]#]#^#^#W W W W W W ^#^#^#^#v@v@v@v@v@v@v@v@v@v@d }#}#/#",
"-#' ' ;#(#d s@s@d _#_#:#<#<#<#[#L+)+)+|#d d s@s@]#]#]#]#]#]#]#]#]#]#]#]#]#]#d d d d d d d d d d d d v@v@v@v@v@v@v@v@v@v@d }#}#/#",
") ) ) ) d d s@s@d 1#1#1#!#[#[#2#{#{#{#3#4#d s@s@]#]#]#]#]#]#]#]#]#]#]#]#]#]#d 5#6#7#7#8#9#0#0#a#b#d v@v@v@v@v@v@v@v@v@v@d }#}#/#",
"c#d#d#d s@s@d d 8#8#8#8#3 e#e#f#)+)+)+J+S.d s@s@g#g#g#g#g#g#g#g#g#g#g#g#g#g#d h#i#j#j#k#P@P@P@l#m#d H@H@I@I@H@H@I@I@H@H@d n#n#o#",
"p#0 0 d s@s@d q#r#r#r#r#m X X e#s#6+d d d d s@s@g#g#g#g#g#g#g#g#g#g#g#g#g#g#d d d d t#i#P@O@O@u#m#d H@H@I@I@H@H@I@I@H@H@d n#n#v#",
"p#0 0 d s@s@d q#r#r#r#r#m X X e#s#d w#w#w#w#x#x#s@s@x#x#s@s@s@s@s@s@s@s@s@s@w#w#w#w#d i#P@O@O@u#m#y#d d V@V@V@V@V@V@d d d n#n#v#",
"9 9 9 d s@s@d z#6#6#6#A#3 m d d d d w#w#w#w#x#x#s@s@x#x#s@s@s@s@s@s@s@s@s@s@w#w#w#w#d d B#B#B#C#D#E#E#d V@V@V@V@V@V@d F#n#n#n#o#",
"G#H#H#d s@s@d A@I#I#I#I#J#d w#w#w#w#w#w#w#w#w#w#s@s@w#w#x#x#x#x#m.m.m.m.x#x#w#w#w#w#w#w#d K#K#L#M#M#M#N#d d d d d d O#P#Q#R#R#S#",
"T#~.~.d s@s@d d d d d d d d w#w#w#w#w#w#w#w#w#w#s@s@w#w#x#x#x#x#m.m.m.m.x#x#w#w#w#w#w#w#d d U#L#M#M#M#N#V#W#W#X#Y#Y#Y#Z#R#`#`#R#",
"T#~.~.d x#x#x#x#x#x#x#x#w#w#w#w#w#w#x#x#x#x#x#x#s@s@w#w#w#w#w#w#x#x#W W w#w#w#w#w#w#w#w#w#w#d L#M#M#M#N#V#W#W#X#Y#Y#Y#Z#R#`#`#R#",
"H#H#d d x#x#x#x#x#x#x#x#w#w#w#w#w#w#x#x#x#x#x#x#s@s@w#w#w#w#w#w#x#x#W W w#w#w#w#w#w#w#w#w#w#d d M#M#M# $d d V#.$Z#Z#Z#Z#+$@$@$Q#",
"#$d s@s@d d x#x#x#x#w#w#w#w#w#w#x#x#x#x#x#x#w#w#s@s@w#w#w#w#w#w#w#w#W W s@s@W W w#w#w#w#w#w#w#w#d $$$$d x#x#d %$&$*$*$=$-$;$;$-$",
"#$d s@s@d d x#x#x#x#w#w#w#w#w#w#x#x#x#x#x#x#w#w#s@s@w#w#w#w#w#w#w#w#W W s@s@W W w#w#w#w#w#w#w#w#d d d d x#x#d %$*$@#@#=$>$,$,$>$",
"#$d s@s@d 7+d d w#w#w#w#w#w#w#w#w#w#x#x#w#w#w#w#s@s@w#w#w#w#w#w#w#w#g#g#g#g#g#g#w#w#w#w#w#w#w#w#x#x#x#x#d d '$%$*$@#@#=$>$,$,$>$",
")$d s@s@d #$d d w#w#w#w#w#w#w#w#w#w#x#x#w#w#w#w#s@s@w#w#w#w#w#w#w#w#g#g#g#g#g#g#w#w#w#w#w#w#w#w#x#x#x#x#d %$%$%$&$=$=$&$!$!$!$~$",
"N.d s@s@d d w#w#w#w#w#w#w#w#w#w#w#w#w#w#w#w#w#w#s@s@w#w#w#w#w#w#w#w#x#x#x#x#x#x#w#w#w#w#w#w#w#w#x#x#d d {$]$]$^$/$($($_$:$<$<$[$",
"N.d s@s@d d w#w#w#w#w#w#w#w#w#w#w#w#w#w#w#w#w#w#s@s@w#w#w#w#w#w#w#w#x#x#x#x#x#x#w#w#w#w#w#w#w#w#x#x#d }$|$1$1$^$($2$2$_$3$4$4$5$",
"N.d s@s@d d w#w#w#w#w#w#w#w#w#w#6$6$w#w#w#w#s@s@x#x#w#w#w#w#x#x#w#w#w#w#w#w#w#w#w#w#w#w#w#w#w#w#d d '$}$|$1$1$^$($2$2$_$3$4$4$5$",
"7$d s@s@d d w#w#w#w#w#w#w#w#w#w#6$6$w#w#w#w#s@s@x#x#w#w#w#w#x#x#w#w#w#w#w#w#w#w#w#w#w#w#w#w#w#w#d 8$8$}$^${${$9$_$_$_$0$[$[$[$a$",
"b$d c$c$d d w#w#w#w#w#w#w#w#w#w#w#w#c$c$s@s@x#x#w#w#w#w#w#w#x#x#w#w#w#w#w#w#x#x#w#w#w#w#w#w#x#x#d d$d$e$f$f$f$g$h$i$i$j$k$l$l$m$",
"n$d c$c$d d w#w#w#w#w#w#w#w#w#w#w#w#c$c$s@s@x#x#w#w#w#w#w#w#x#x#w#w#w#w#w#w#x#x#w#w#w#w#w#w#x#x#d d$d$e$f$o$o$g$h$i$i$p$k$q$q$l$",
"n$d c$c$x#x#x#x#x#x#x#x#x#x#w#w#c$c$c$c$x#x#x#x#w#w#w#w#w#w#x#x#x#x#x#x#x#x#x#x#w#w#w#w#w#w#d d r$d$d$e$f$o$o$g$h$i$i$p$k$q$q$l$",
"s$d c$c$x#x#x#x#x#x#x#x#x#x#w#w#c$c$c$c$x#x#x#x#w#w#w#w#w#w#x#x#x#x#x#x#x#x#x#x#w#w#w#w#w#w#d t$e$e$e$u$f$f$f$g$v$w$w$v$m$m$m$l$",
"x$y$d d x#x#z$z$x#x#z$z$x#x#s@s@c$c$A$A$B$B$d d w#w#w#w#x#x#d d d d d d d d d d x#x#w#w#w#w#d C$D$E$E$F$G$H$H$G$I$I$I$J$K$K$K$L$",
"M$N$N$d x#x#z$z$x#x#z$z$x#x#s@s@c$c$A$A$B$B$d d w#w#w#w#x#x#d O$P$Q$Q$R$S$T$T$d x#x#w#w#w#w#d C$U$V$V$E$G$H$H$G$W$X$X$J$Y$Z$Z$K$",
"M$N$N$d g#g#x#x#x#x#x#x#g#g#g#g#A$A$B$B$d d `$d w#w#w#w#d d d$O$P$Q$Q$R$S$T$T$ %d d w#w#w#w#d C$U$V$V$E$G$H$H$G$W$X$X$J$Y$Z$Z$K$",
".%y$y$d g#g#x#x#x#x#x#x#g#g#g#g#A$A$B$B$d +%+%d w#w#w#w#d u$u$@%P$P$P$#% %$%$%%%&%d w#w#w#w#d *%D$D$D$=%-%G$G$-%;%W$W$>%,%'%'%)%",
"!%~%~%{%d d d d d d d d d d d d ]%]%^%^%d 4#4#d A$A$c$c$d /%/%(%c+_%_%:%<%[%[%}%|%d A$A$c$c$d 1%2%L#L#3%4%4%4%5%6%6%6%7%8%9%9%0%",
"a%b%b%c%d%e%e%f%g%h%h%i%j%j%j%d ]%]%^%^%d k%k%d A$A$c$c$d l%l%m%c+n%n%:%o%p%p%}%|%d A$A$c$c$d q%K#U#U#r%s%s%s%t%6%u%u%7%8%9%9%v%",
"a%b%b%c%d%e%e%f%g%h%h%i%j%j%j%j%d d d d w%k%k%x%d d d d y%l%l%m%c+n%n%:%o%p%p%}%|%z%d d d d A%q%K#U#U#r%s%s%s%t%6%u%u%7%8%9%9%v%",
"B%C%D%!%d%E%E%F%G%g%g%H%I%I%I%j%J% . .K%L%M%M%N%O%P%P%Q%P$R$R$R%S%_%_%S%T%p%p%<%U%|%|%|%V%V%V%q%W%X%X%r%s%Y%Y%t%Z%`%`%6% &.&.&8%"};
